<?xml version="1.0" encoding="utf-8"?>
<!-- Generator: Adobe Illustrator 25.3.0, SVG Export Plug-In . SVG Version: 6.00 Build 0)  -->
<svg version="1.1" id="Layer_1" xmlns="http://www.w3.org/2000/svg" xmlns:xlink="http://www.w3.org/1999/xlink" x="0px" y="0px"
	 viewBox="0 0 864 525.6" style="enable-background:new 0 0 864 525.6;" xml:space="preserve">
<style type="text/css">
	.st0{fill:#EFCDE2;stroke:#000000;stroke-miterlimit:10;}
	.st1{fill:none;}
	.st2{font-family:'ArialMT';}
	.st3{font-size:12px;}
	.st4{fill:#DAF0F7;stroke:#000000;stroke-miterlimit:10;}
	.st5{fill:#FFFFFF;}
	.st6{fill:#0F303F;}
	.st7{fill:#C02826;}
	.st8{fill:#A82323;}
	.st9{fill:#2D5972;}
	.st10{fill:none;stroke:#010101;stroke-linecap:round;stroke-linejoin:round;}
	.st11{fill:#010101;}
	.st12{font-size:10.6057px;}
	.st13{fill:#19B0BF;}
	.st14{fill:#6F593E;}
	.st15{fill:#FFFFFF;stroke:#010101;stroke-width:0.5;stroke-miterlimit:10;}
	.st16{fill-rule:evenodd;clip-rule:evenodd;fill:#ED2224;}
	.st17{fill-rule:evenodd;clip-rule:evenodd;fill:#404859;}
	.st18{fill-rule:evenodd;clip-rule:evenodd;fill:#484F5F;}
	.st19{fill-rule:evenodd;clip-rule:evenodd;fill:#E8EBEF;}
	.st20{fill-rule:evenodd;clip-rule:evenodd;fill:#FFFFFF;}
	.st21{fill-rule:evenodd;clip-rule:evenodd;fill:#FFCB12;}
	.st22{fill-rule:evenodd;clip-rule:evenodd;fill:#F47920;}
	.st23{font-size:10.3748px;}
	.st24{fill:url(#SVGID_1_);}
	.st25{fill:#343533;}
	.st26{opacity:0.5;fill:#646463;enable-background:new    ;}
	.st27{fill:url(#SVGID_2_);}
	.st28{fill:url(#SVGID_3_);}
	.st29{fill:url(#SVGID_4_);}
	.st30{fill:#777776;}
	.st31{fill:#D71F28;}
	.st32{fill:#841A1F;}
	.st33{fill:#A41E22;}
	.st34{fill:#4B4B4A;}
	.st35{fill:#282927;}
	.st36{opacity:0.5;}
	.st37{fill:#6C6C6B;}
	.st38{opacity:0.5;fill:#4B4B4A;enable-background:new    ;}
	.st39{fill:url(#SVGID_5_);}
	.st40{fill:url(#SVGID_6_);}
	.st41{fill:url(#SVGID_7_);}
	.st42{fill:url(#SVGID_8_);}
	.st43{font-family:'Arial-BoldMT';}
	.st44{font-size:13px;}
	.st45{fill:#303030;}
	.st46{fill:#6E5A3E;}
	.st47{fill:#2C2318;}
	.st48{fill:#6A5D4A;}
	.st49{fill:#606060;stroke:#333333;stroke-miterlimit:10;}
	.st50{fill:#614C3F;}
	.st51{fill:#43392E;}
	.st52{fill:#251F13;}
	.st53{fill:#191919;}
	.st54{fill:#7C441C;}
	.st55{fill:url(#SVGID_9_);}
	.st56{fill:url(#SVGID_10_);}
	.st57{fill:#D7D6CC;}
	.st58{fill:#51441A;}
	.st59{fill:url(#SVGID_11_);}
	.st60{fill:#1A110B;}
	.st61{fill:#AB926D;}
	.st62{fill:none;stroke:#010101;stroke-width:0.1;stroke-linecap:round;stroke-linejoin:round;stroke-miterlimit:3;}
	.st63{fill:#606060;}
	.st64{fill:#605444;}
	.st65{fill:url(#SVGID_12_);}
	.st66{fill:#786A56;}
	.st67{fill:#3F3127;}
	.st68{fill:#4A352B;}
	.st69{fill:#7D6E59;}
	.st70{fill:#5A3D1E;}
	.st71{fill:#221910;}
	.st72{fill:#AA8B57;}
	.st73{fill:#787877;stroke:#4E4E4E;stroke-miterlimit:10;}
	.st74{fill:#0D0E0E;}
	.st75{fill:url(#SVGID_13_);}
	.st76{fill:url(#SVGID_14_);}
	.st77{fill:url(#SVGID_15_);}
	.st78{fill:url(#SVGID_16_);}
	.st79{fill:url(#SVGID_17_);}
	.st80{fill:url(#SVGID_18_);}
	.st81{fill:url(#SVGID_19_);}
	.st82{fill:url(#SVGID_20_);}
	.st83{fill:url(#SVGID_21_);}
	.st84{fill:url(#SVGID_22_);}
	.st85{fill:url(#SVGID_23_);}
	.st86{fill:url(#SVGID_24_);}
	.st87{fill:#BF7F4C;stroke:#010101;stroke-miterlimit:10;}
	.st88{fill:#010101;stroke:#010101;stroke-width:2;stroke-miterlimit:10;}
	.st89{fill:#911A1D;stroke:#010101;stroke-width:0.5;stroke-miterlimit:10;}
	.st90{fill:#155C2F;stroke:#010101;stroke-width:0.5;stroke-miterlimit:10;}
	.st91{font-size:7.3285px;}
	.st92{font-size:10px;}
	.st93{fill:none;stroke:#000000;stroke-miterlimit:10;}
	.st94{fill:none;stroke:#010101;stroke-miterlimit:10;}
	.st95{font-size:20px;}
</style>
<g>
	<g>
		<rect x="134.9" y="229.6" class="st0" width="98.4" height="47.6"/>
		<rect x="144.9" y="241.2" class="st1" width="78.4" height="39.8"/>
		<text transform="matrix(1 0 0 1 167.4689 249.7928)" class="st2 st3">HTDC </text>
		<text transform="matrix(1 0 0 1 164.7689 264.1928)" class="st2 st3">0-230V</text>
		<rect y="0" class="st4" width="864" height="525.6"/>
	</g>
	<path class="st5" d="M690.2,244.7c0.4-0.6,1.2-0.9,1.8-0.5s0.9,1.2,0.5,1.8s-1.2,0.9-1.8,0.5C690,246.2,689.8,245.4,690.2,244.7z"
		/>
	<path class="st5" d="M682.6,236.2c0.6-0.4,1.5-0.1,1.8,0.5c0.4,0.6,0.2,1.5-0.5,1.8c-0.6,0.4-1.5,0.1-1.8-0.5
		C681.7,237.3,681.9,236.5,682.6,236.2z"/>
	<path class="st5" d="M701,248.4c0-0.7,0.6-1.3,1.3-1.3s1.3,0.6,1.3,1.3s-0.6,1.3-1.3,1.3S701,249.1,701,248.4z"/>
	<path class="st5" d="M712.2,246.1c-0.4-0.6-0.1-1.4,0.5-1.8c0.6-0.4,1.5-0.2,1.8,0.5c0.4,0.6,0.1,1.5-0.5,1.8
		C713.4,246.9,712.6,246.7,712.2,246.1z"/>
	<path class="st5" d="M720.8,238.5c-0.6-0.4-0.9-1.2-0.5-1.8s1.2-0.9,1.8-0.5s0.9,1.2,0.5,1.8C722.2,238.6,721.4,238.8,720.8,238.5z
		"/>
	<g>
		<path class="st6" d="M692,206c0,0.9-3.5,1.6-7.7,1.6c-4.3,0-7.7-0.7-7.7-1.6c0-0.9,3.5-1.6,7.7-1.6S692,205.1,692,206z"/>
		<g>
			<path class="st7" d="M667.5,205.8v-22.1h16.9v-5.5h-18.2c-2.5,0-4.6,2.1-4.6,4.6v61.9c0,2.6,2.1,4.6,4.6,4.6h18.1v-43.5
				L667.5,205.8L667.5,205.8z"/>
			<path class="st8" d="M702.2,178.2h-17.9v5.5h16.6v22.1h-16.6v43.5h17.9c2.5,0,4.6-2.1,4.6-4.6v-61.9
				C706.8,180.3,704.8,178.2,702.2,178.2z"/>
		</g>
		
			<ellipse transform="matrix(1 -1.444615e-03 1.444615e-03 1 -0.3301 0.9886)" class="st5" cx="684.2" cy="229" rx="14.4" ry="14.4"/>
		<path class="st5" d="M685.3,211.5c0,0.6-0.5,1.1-1.1,1.1s-1.1-0.5-1.1-1.1s0.5-1.1,1.1-1.1S685.3,210.9,685.3,211.5z"/>
		<path class="st5" d="M676.4,213.3c0.3,0.5,0.1,1.2-0.4,1.4c-0.5,0.3-1.2,0.1-1.4-0.4c-0.3-0.5-0.1-1.2,0.4-1.4
			C675.4,212.6,676.1,212.8,676.4,213.3z"/>
		<path class="st5" d="M669.6,219.3c0.5,0.3,0.7,0.9,0.4,1.4s-0.9,0.7-1.4,0.4s-0.7-0.9-0.4-1.4C668.4,219.2,669,219,669.6,219.3z"
			/>
		<path class="st5" d="M666.7,228c0.6,0,1.1,0.5,1.1,1.1s-0.5,1.1-1.1,1.1s-1.1-0.5-1.1-1.1C665.6,228.4,666.1,228,666.7,228z"/>
		<path class="st5" d="M701.8,230.1c-0.6,0-1.1-0.5-1.1-1.1s0.5-1.1,1.1-1.1s1.1,0.5,1.1,1.1C702.9,229.6,702.4,230.1,701.8,230.1z"
			/>
		<path class="st5" d="M700,221.2c-0.5,0.3-1.2,0.1-1.4-0.4c-0.3-0.5-0.1-1.2,0.4-1.4c0.5-0.3,1.2-0.1,1.4,0.4
			C700.7,220.2,700.5,220.9,700,221.2z"/>
		<path class="st5" d="M693.9,214.3c-0.3,0.5-0.9,0.7-1.4,0.4s-0.7-0.9-0.4-1.4s0.9-0.7,1.4-0.4
			C694.1,213.2,694.2,213.8,693.9,214.3z"/>
		<g>
			<path class="st9" d="M675.6,220.6l3.5,6c0,1.4,0.5,3,1.4,4.6s2.1,2.8,3.3,3.5l3.5,6l2.8-1.6L678.4,219L675.6,220.6z"/>
			<path class="st6" d="M684.7,223.4l-3.5-6l-2.8,1.6l11.6,20.2l2.8-1.6l-3.5-6c0-1.4-0.5-3-1.4-4.6
				C687.1,225.3,685.9,224.1,684.7,223.4z"/>
		</g>
	</g>
</g>
<g>
	<g id="g8012" transform="translate(20.10156,15)">
		<path id="path7119" class="st10" d="M441.2,158v-46.4"/>
		<path id="path7994" class="st10" d="M457.1,158h-31.8"/>
		<path id="path7996" class="st10" d="M441.2,184.5L425.3,158"/>
		<path id="path7998" class="st10" d="M441.2,184.5l15.9-26.5"/>
		<path id="path8000" class="st10" d="M457.1,184.5h-31.8"/>
		<path id="path8002" class="st10" d="M441.2,230.9v-46.4"/>
		<path id="path1341" class="st10" d="M447.8,184.5l6.6,13.3"/>
		<path id="path1343" class="st10" d="M484.8,197.8h-30.3"/>
	</g>
	<text transform="matrix(1 0 0 1 469.2733 148.049)" class="st11 st2 st12">Anode</text>
	<text transform="matrix(1 0 0 1 471.6463 242.1701)" class="st11 st2 st12">Cathode</text>
	<text transform="matrix(1 0 0 1 484.9906 205.2903)" class="st11 st2 st12">Gate</text>
</g>
<g>
	<g>
		<g>
			<g>
				<g>
					<path class="st6" d="M675.1,138.6c2.3-2.3,6.1-2.3,8.5,0l3.3,3.3c2.3,2.3,2.3,6.1,0,8.5l-3.3,3.3c-2.3,2.3-6.1,2.3-8.5,0
						l-3.3-3.3c-2.3-2.3-2.3-6.1,0-8.5L675.1,138.6z"/>
					<path class="st9" d="M693,146.5c0,1.4-1.7,2.6-3.9,2.5l-19.5-0.1c-2.1,0-3.9-1.2-3.9-2.6l0,0c0-1.4,1.7-2.6,3.9-2.5l19.5,0.1
						C691.2,143.9,693,145.1,693,146.5L693,146.5z"/>
					<path class="st13" d="M693,141.7c0,1.4-1.8,2.6-3.9,2.5l-19.5-0.1c-2.1,0-3.9-1.2-3.9-2.6l0,0c0-1.4,1.7-2.6,3.9-2.5l19.5,0.1
						C691.2,139.1,693,140.3,693,141.7L693,141.7z"/>
					<path class="st6" d="M693,136.9c0,1.4-1.7,2.6-3.9,2.5l-19.5-0.1c-2.1,0-3.9-1.2-3.9-2.6l0,0c0-1.4,1.8-2.6,3.9-2.5l19.5,0.1
						C691.3,134.3,693,135.5,693,136.9L693,136.9z"/>
					<path class="st14" d="M693,132.1c0,1-0.9,1.9-2.2,2.3c-0.1,0-0.2,0.1-0.3,0.1c-0.4,0.1-0.9,0.2-1.4,0.2h-9.7h-9.7
						c-0.5,0-0.9-0.1-1.4-0.2c-0.1,0-0.2-0.1-0.3-0.1c-1.3-0.4-2.2-1.3-2.2-2.3c0-0.9,0.7-1.6,1.7-2.1c0.6-0.3,1.4-0.4,2.2-0.4l0,0
						h9.7h9.7c0.8,0,1.5,0.2,2.2,0.4C692.3,130.4,693,131.2,693,132.1z"/>
				</g>
			</g>
		</g>
	</g>
	<g>
		<path class="st15" d="M702.9,103.7c0,9.4-6.1,13.7-10.5,21.2c-0.6,1-1,2.6-1.3,4.6c-0.6-0.3-1.4-0.4-2.2-0.4h-9.7h-9.7l0,0
			c-0.8,0-1.6,0.2-2.2,0.4c-0.3-1.9-0.7-3.5-1.2-4.5c-4.3-7.5-10.4-12-10.3-21.4c0.1-13.6,10.7-24.6,23.7-24.5
			C692.5,79,703,90.1,702.9,103.7z"/>
	</g>
</g>
<g>
	<g>
		<g>
			<path class="st16" d="M412.6,174.3c0.6,0,1-0.5,1-1v-3.8c0-0.6-0.5-1-1-1c-0.6,0-1,0.5-1,1v3.8
				C411.6,173.9,412,174.3,412.6,174.3z"/>
		</g>
		<g>
			<path class="st17" d="M358.5,149.6c0.6,0,1-0.5,1-1v-3.8c0-0.6-0.5-1-1-1c-0.6,0-1,0.5-1,1v3.8
				C357.4,149.1,357.9,149.6,358.5,149.6z"/>
		</g>
		<g>
			<path class="st18" d="M363.4,188h44.3c2.8,0,5.1-2.2,5.1-5v-60.6c0-2.8-2.2-5.1-5.1-5.1h-44.3c-2.8,0-5.1,2.2-5.1,5.1V183
				C358.3,185.7,360.6,188,363.4,188z"/>
			<path class="st19" d="M367.7,152.1h35.7c2,0,3.6-1.6,3.6-3.6v-21.9c0-2-1.6-3.6-3.6-3.6h-35.7c-2,0-3.6,1.6-3.6,3.6v21.9
				C364.1,150.5,365.7,152.1,367.7,152.1z"/>
			<path class="st20" d="M365.7,164.8h39.7c0.6,0,1-0.5,1-1v-6c0-0.6-0.5-1-1-1h-39.7c-0.6,0-1,0.5-1,1v6.1
				C364.7,164.4,365.1,164.8,365.7,164.8z"/>
			<g>
				<path class="st17" d="M368.7,143.5c0.6,0,1-0.5,1-1c0-8.7,7.1-15.8,15.8-15.8c8.7,0,15.8,7.1,15.8,15.8c0,0.6,0.5,1,1,1
					c0.6,0,1-0.5,1-1c0-9.8-8-17.8-17.8-17.8s-17.8,8-17.8,17.8C367.7,143.1,368.1,143.5,368.7,143.5z"/>
			</g>
			<g>
				<path class="st17" d="M398.5,143.5h3.8c0.6,0,1-0.5,1-1c0-0.6-0.5-1-1-1h-3.8c-0.6,0-1,0.5-1,1
					C397.4,143,397.9,143.5,398.5,143.5z"/>
			</g>
			<g>
				<path class="st17" d="M368.7,143.5h3.8c0.6,0,1-0.5,1-1c0-0.6-0.5-1-1-1h-3.8c-0.6,0-1,0.5-1,1S368.1,143.5,368.7,143.5z"/>
			</g>
			<path class="st21" d="M372.1,178c-2.6,0-4.7-2-4.7-4.6s2.1-4.7,4.7-4.7s4.7,2,4.7,4.6C376.8,175.9,374.7,178,372.1,178L372.1,178
				z M369.5,173.4c0,1.5,1.1,2.6,2.6,2.6s2.6-1.1,2.6-2.6s-1.1-2.6-2.6-2.6C370.6,170.7,369.5,171.9,369.5,173.4z"/>
			<path class="st21" d="M385.8,178c-2.6,0-4.7-2.1-4.7-4.7c0-2.6,2.1-4.7,4.7-4.7s4.7,2.1,4.7,4.7C390.4,175.9,388.3,178,385.8,178
				L385.8,178z M383.1,173.4c0,1.4,1.2,2.6,2.7,2.6c1.4,0,2.6-1.2,2.6-2.6s-1.2-2.6-2.6-2.6C384.3,170.7,383.1,171.9,383.1,173.4z"
				/>
			<path class="st21" d="M399.4,178c-2.5,0-4.7-2.1-4.7-4.7c0-2.6,2.1-4.7,4.7-4.7s4.7,2.1,4.7,4.7S402,178,399.4,178L399.4,178z
				 M396.7,173.4c0,1.5,1.1,2.6,2.6,2.6s2.7-1.2,2.7-2.6s-1.2-2.6-2.7-2.6C397.9,170.7,396.7,171.9,396.7,173.4z"/>
			<path class="st19" d="M384.7,144.6c0.1-0.9,0.7-1.5,1.5-1.5s1.5,0.7,1.5,1.5s-0.6,1.5-1.5,1.5
				C385.4,146.1,384.7,145.5,384.7,144.6z"/>
			<path class="st18" d="M369.5,173.4c0-1.5,1.1-2.6,2.6-2.6s2.6,1.1,2.6,2.6s-1.1,2.6-2.6,2.6S369.5,174.9,369.5,173.4z"/>
			<path class="st18" d="M383.1,173.4c0.1-1.5,1.3-2.6,2.7-2.6c1.4,0,2.6,1.2,2.6,2.6c0,1.4-1.2,2.6-2.6,2.6
				C384.3,176,383.1,174.8,383.1,173.4z"/>
			<path class="st18" d="M396.7,173.4c0-1.5,1.1-2.6,2.6-2.6s2.7,1.2,2.7,2.6c0,1.4-1.2,2.6-2.7,2.6
				C397.9,176,396.7,174.9,396.7,173.4z"/>
		</g>
		<path class="st22" d="M369.6,184.6h32.5c0.6,0,1-0.5,1-1c0-0.6-0.5-1-1-1h-32.6c-0.6,0-1,0.5-1,1S369,184.6,369.6,184.6z"/>
	</g>
	<rect x="359.3" y="135.6" class="st1" width="52.3" height="10.7"/>
	<text transform="matrix(1 0 0 1 379.9472 142.9317)" class="st2 st23">0V</text>
</g>
<rect x="655.7" y="189.9" class="st1" width="52.3" height="10.7"/>
<text transform="matrix(1 0 0 1 676.0358 197.2807)" class="st2 st23">0A</text>
<g>
	<g>
		<g>
			
				<linearGradient id="SVGID_1_" gradientUnits="userSpaceOnUse" x1="216.371" y1="245.0431" x2="216.371" y2="307.6498" gradientTransform="matrix(-1 0 0 -1 355.521 525.6)">
				<stop  offset="7.134890e-03" style="stop-color:#191818"/>
				<stop  offset="0.176" style="stop-color:#444443"/>
				<stop  offset="0.3386" style="stop-color:#6C6C6B"/>
				<stop  offset="0.7313" style="stop-color:#1F1E1E"/>
				<stop  offset="0.9798" style="stop-color:#121111"/>
			</linearGradient>
			<rect x="99.1" y="231.7" class="st24" width="80.1" height="37.9"/>
			<path class="st25" d="M98.9,269.6v-37.9c0-0.1,0.1-0.2,0.2-0.2h80.1c0.1,0,0.2,0.1,0.2,0.2v37.9c0,0.1-0.1,0.2-0.2,0.2H99.1
				C99,269.8,98.9,269.7,98.9,269.6z M179.1,231.9H99.3v37.5h79.8V231.9z"/>
		</g>
		<rect x="99.1" y="268.5" class="st26" width="80.1" height="1.2"/>
		<rect x="99.1" y="231.7" class="st26" width="80.1" height="2.2"/>
		<g>
			
				<linearGradient id="SVGID_2_" gradientUnits="userSpaceOnUse" x1="216.321" y1="304.0669" x2="216.321" y2="279.7601" gradientTransform="matrix(-1 0 0 -1 355.521 525.6)">
				<stop  offset="7.134890e-03" style="stop-color:#191818"/>
				<stop  offset="0.176" style="stop-color:#444443"/>
				<stop  offset="0.3386" style="stop-color:#6C6C6B"/>
				<stop  offset="0.7313" style="stop-color:#1F1E1E"/>
				<stop  offset="0.9798" style="stop-color:#121111"/>
			</linearGradient>
			<rect x="97.5" y="230.6" class="st27" width="83.4" height="2.3"/>
			<path class="st25" d="M97.3,232.9v-2.3c0-0.1,0.1-0.2,0.2-0.2h83.4c0.1,0,0.2,0.1,0.2,0.2v2.3c0,0.1-0.1,0.2-0.2,0.2H97.5
				C97.4,233.1,97.3,233,97.3,232.9z M180.7,230.8h-83v2h83.1L180.7,230.8L180.7,230.8z"/>
		</g>
		<rect x="106" y="235.4" class="st26" width="66.6" height="30.5"/>
		<g>
			
				<linearGradient id="SVGID_3_" gradientUnits="userSpaceOnUse" x1="216.171" y1="246.9487" x2="216.171" y2="303.1573" gradientTransform="matrix(-1 0 0 -1 355.521 525.6)">
				<stop  offset="7.134890e-03" style="stop-color:#191818"/>
				<stop  offset="0.176" style="stop-color:#444443"/>
				<stop  offset="0.3386" style="stop-color:#6C6C6B"/>
				<stop  offset="0.7313" style="stop-color:#1F1E1E"/>
				<stop  offset="0.9798" style="stop-color:#121111"/>
			</linearGradient>
			<rect x="107.8" y="236.9" class="st28" width="63.1" height="27.5"/>
			<path class="st25" d="M107.6,264.3v-27.5c0-0.1,0.1-0.2,0.2-0.2h63.1c0.1,0,0.2,0.1,0.2,0.2v27.5c0,0.1-0.1,0.2-0.2,0.2h-63.1
				C107.7,264.5,107.6,264.4,107.6,264.3z M170.7,237H108v27.1h62.7V237z"/>
		</g>
		<g>
			
				<linearGradient id="SVGID_4_" gradientUnits="userSpaceOnUse" x1="216.321" y1="311.5656" x2="216.321" y2="285.0283" gradientTransform="matrix(-1 0 0 -1 355.521 525.6)">
				<stop  offset="7.134890e-03" style="stop-color:#191818"/>
				<stop  offset="0.176" style="stop-color:#444443"/>
				<stop  offset="0.3386" style="stop-color:#6C6C6B"/>
				<stop  offset="0.7313" style="stop-color:#1F1E1E"/>
				<stop  offset="0.9798" style="stop-color:#121111"/>
			</linearGradient>
			<polygon class="st29" points="102.3,221.1 176.1,221.1 180.9,230.6 158.1,230.6 120.3,230.6 97.5,230.6 			"/>
			<path class="st25" d="M97.3,230.7c0-0.1,0-0.1,0-0.2l4.8-9.5c0-0.1,0.1-0.1,0.2-0.1H176c0.1,0,0.1,0,0.2,0.1l4.8,9.5
				c0,0.1,0,0.1,0,0.2c0,0.1-0.1,0.1-0.2,0.1H97.5C97.4,230.8,97.4,230.7,97.3,230.7z M175.9,221.3h-73.5l-4.7,9.1h82.8L175.9,221.3
				z"/>
		</g>
		<polygon class="st30" points="100.4,224.8 102.3,221.1 176.1,221.1 177.9,224.8 174.9,221.8 103.2,221.8 		"/>
		<g>
			<g>
				<g>
					<g>
						<path class="st31" d="M172.2,221.8v1.3c0,0.5-2.8,0.9-6.3,0.9s-6.3-0.4-6.3-0.9v-1.3H172.2z"/>
						<path class="st32" d="M159.5,223.1v-1.3c0-0.1,0.1-0.2,0.2-0.2h12.5c0.1,0,0.2,0.1,0.2,0.2v1.3c0,1.1-6.2,1.1-6.4,1.1
							C165.7,224.2,159.5,224.2,159.5,223.1z M159.9,222v1.2c0.1,0.3,2.3,0.8,6.1,0.8s6-0.5,6.1-0.7v-1.2h-12.2L159.9,222L159.9,222
							z"/>
					</g>
				</g>
				<g>
					<path class="st31" d="M170.6,221.8h1.6v1.3c0,0.2-0.6,0.5-1.6,0.6V221.8z"/>
					<path class="st31" d="M165.2,221.8v2.3c-3.1-0.1-5.5-0.4-5.5-0.9v-1.3h5.5V221.8z"/>
				</g>
				<g>
					<path class="st33" d="M159.7,221.8c0-0.5,2.8-0.9,6.3-0.9s6.3,0.4,6.3,0.9s-2.8,0.9-6.3,0.9S159.7,222.3,159.7,221.8z"/>
					<path class="st32" d="M159.5,221.8c0-1.1,6.2-1.1,6.4-1.1c0.3,0,6.4,0,6.4,1.1s-6.2,1.1-6.4,1.1
						C165.7,222.9,159.5,222.9,159.5,221.8z M159.9,221.8c0.1,0.3,2.3,0.8,6.1,0.8s6-0.5,6.1-0.7c-0.1-0.3-2.3-0.8-6.1-0.8
						C162.1,221,160,221.5,159.9,221.8z"/>
				</g>
				<path class="st31" d="M159.7,221.8c0-0.5,2.8-0.9,6.3-0.9s6.3,0.4,6.3,0.9s-2.8,0.9-6.3,0.9S159.7,222.3,159.7,221.8z"/>
				<g>
					<g>
						<path class="st31" d="M162.9,214.3h5.9l1.2,7l0,0v0.1c0,0.6-1.9,1-4.2,1s-4.2-0.5-4.2-1L162.9,214.3z"/>
						<path class="st32" d="M161.4,221.4l1.3-7.1c0-0.1,0.1-0.1,0.2-0.1h5.9c0.1,0,0.2,0.1,0.2,0.1l1.2,7v0.1c0,0.9-2.6,1.2-4.4,1.2
							C164.1,222.6,161.4,222.3,161.4,221.4z M168.7,214.5h-5.6l-1.2,6.9c0,0.3,1.4,0.8,4.1,0.8s4.1-0.5,4-0.9c0,0,0,0,0-0.1
							L168.7,214.5z"/>
					</g>
					<path class="st31" d="M169,220.6c-0.2-2.1-0.5-4.2-0.9-6.3h0.7l1.2,7l0,0v0.1c0,0.2-0.4,0.5-1,0.7
						C169,221.6,169,221.1,169,220.6z"/>
					<path class="st31" d="M162.9,214.3h2.4c0.1,1.7,0.2,7.1,0.1,8.1c-2.1-0.1-3.8-0.5-3.8-1L162.9,214.3z"/>
					<g>
						<path class="st33" d="M162.9,214.3c0-0.4,1.3-0.7,3-0.7c1.6,0,3,0.3,3,0.7s-1.3,0.7-3,0.7S162.9,214.7,162.9,214.3z"/>
						<path class="st32" d="M162.7,214.3c0-0.7,2.1-0.9,3.1-0.9c1.1,0,3.1,0.2,3.1,0.9s-2.1,0.9-3.1,0.9
							C164.7,215.2,162.7,215,162.7,214.3z M163,214.3c0,0.1,0.9,0.5,2.8,0.5c1.9,0,2.8-0.4,2.8-0.5s-0.9-0.5-2.8-0.5
							C164,213.8,163.1,214.1,163,214.3z"/>
					</g>
				</g>
			</g>
			<g>
				<g>
					<g>
						<path class="st34" d="M119.4,221.8v1.3c0,0.5-2.8,0.9-6.3,0.9s-6.3-0.4-6.3-0.9v-1.3H119.4z"/>
						<path class="st35" d="M106.7,223.1v-1.3c0-0.1,0.1-0.2,0.2-0.2h12.5c0.1,0,0.2,0.1,0.2,0.2v1.3c0,1.1-6.2,1.1-6.4,1.1
							S106.7,224.2,106.7,223.1z M107.1,222v1.2c0.1,0.3,2.3,0.8,6.1,0.8s6-0.5,6.1-0.7v-1.2h-12.2V222z"/>
					</g>
				</g>
				<g class="st36">
					<path class="st34" d="M117.8,221.8h1.6v1.3c0,0.2-0.6,0.5-1.6,0.6V221.8z"/>
					<path class="st34" d="M112.4,221.8v2.3c-3.1-0.1-5.5-0.4-5.5-0.9v-1.3h5.5V221.8z"/>
				</g>
				<g>
					<path class="st33" d="M106.9,221.8c0-0.5,2.8-0.9,6.3-0.9s6.3,0.4,6.3,0.9s-2.8,0.9-6.3,0.9S106.9,222.3,106.9,221.8z"/>
					<path class="st32" d="M106.7,221.8c0-1.1,6.2-1.1,6.4-1.1s6.4,0,6.4,1.1s-6.2,1.1-6.4,1.1S106.7,222.9,106.7,221.8z
						 M107.1,221.8c0.1,0.3,2.3,0.8,6.1,0.8s6-0.5,6.1-0.7c-0.1-0.3-2.3-0.8-6.1-0.8C109.4,221,107.2,221.5,107.1,221.8z"/>
				</g>
				<g>
					<path class="st37" d="M106.9,221.8c0-0.5,2.8-0.9,6.3-0.9s6.3,0.4,6.3,0.9s-2.8,0.9-6.3,0.9S106.9,222.3,106.9,221.8z"/>
					<path class="st35" d="M106.7,221.8c0-1.1,6.2-1.1,6.4-1.1s6.4,0,6.4,1.1s-6.2,1.1-6.4,1.1S106.7,222.9,106.7,221.8z
						 M107.1,221.8c0.1,0.3,2.3,0.8,6.1,0.8s6-0.5,6.1-0.7c-0.1-0.3-2.3-0.8-6.1-0.8C109.4,221,107.2,221.5,107.1,221.8z"/>
				</g>
				<g>
					<g>
						<path class="st34" d="M110.1,214.3h5.9l1.2,7l0,0v0.1c0,0.6-1.9,1-4.2,1s-4.2-0.5-4.2-1L110.1,214.3z"/>
						<path class="st35" d="M108.6,221.4l1.3-7.1c0-0.1,0.1-0.1,0.2-0.1h5.9c0.1,0,0.2,0.1,0.2,0.1l1.2,7v0.1c0,0.9-2.6,1.2-4.4,1.2
							C111.3,222.6,108.6,222.3,108.6,221.4z M110.2,214.5l-1.2,6.9c0,0.3,1.4,0.8,4.1,0.8s4.1-0.5,4.1-0.8l-1.2-6.9H110.2z"/>
					</g>
					<path class="st38" d="M116.2,220.6c-0.2-2.1-0.5-4.2-0.9-6.3h0.7l1.2,7l0,0v0.1c0,0.2-0.4,0.5-1,0.7
						C116.2,221.6,116.2,221.1,116.2,220.6z"/>
					<path class="st38" d="M110.1,214.3h2.4c0.1,1.7,0.2,7.1,0.1,8.1c-2.1-0.1-3.8-0.5-3.8-1L110.1,214.3z"/>
					<g>
						<path class="st34" d="M110.1,214.3c0-0.4,1.3-0.7,3-0.7c1.6,0,3,0.3,3,0.7s-1.3,0.7-3,0.7S110.1,214.7,110.1,214.3z"/>
						<path class="st35" d="M109.9,214.3c0-0.7,2.1-0.9,3.1-0.9c1.1,0,3.1,0.2,3.1,0.9s-2.1,0.9-3.1,0.9
							C111.9,215.2,109.9,215,109.9,214.3z M110.2,214.3c0,0.1,0.9,0.5,2.8,0.5s2.8-0.4,2.8-0.5s-0.9-0.5-2.8-0.5
							C111.2,213.8,110.3,214.1,110.2,214.3z"/>
					</g>
				</g>
			</g>
		</g>
		<g>
			<polygon class="st26" points="144,225 169.5,225 172.2,230 144,230 			"/>
			<g>
				<g>
					
						<linearGradient id="SVGID_5_" gradientUnits="userSpaceOnUse" x1="197.771" y1="288.509" x2="197.771" y2="298.6006" gradientTransform="matrix(-1 0 0 -1 355.521 525.6)">
						<stop  offset="7.134890e-03" style="stop-color:#191818"/>
						<stop  offset="0.176" style="stop-color:#444443"/>
						<stop  offset="0.3386" style="stop-color:#6C6C6B"/>
						<stop  offset="0.7313" style="stop-color:#1F1E1E"/>
						<stop  offset="0.9798" style="stop-color:#121111"/>
					</linearGradient>
					<polygon class="st39" points="144.6,225.6 170.9,227.8 170.9,229.4 144.6,229.4 					"/>
					<path class="st25" d="M144.4,229.4v-3.8c0,0,0-0.1,0.1-0.1h0.1l26.3,2.1c0.1,0,0.2,0.1,0.2,0.2v1.7c0,0.1-0.1,0.2-0.2,0.2
						h-26.3C144.5,229.6,144.4,229.5,144.4,229.4z M170.7,227.9l-25.9-2.1v3.4h25.9V227.9z"/>
				</g>
				<g>
					
						<linearGradient id="SVGID_6_" gradientUnits="userSpaceOnUse" x1="197.771" y1="309.1843" x2="197.771" y2="291.7434" gradientTransform="matrix(-1 0 0 -1 355.521 525.6)">
						<stop  offset="7.134890e-03" style="stop-color:#191818"/>
						<stop  offset="0.176" style="stop-color:#444443"/>
						<stop  offset="0.3386" style="stop-color:#6C6C6B"/>
						<stop  offset="0.7313" style="stop-color:#1F1E1E"/>
						<stop  offset="0.9798" style="stop-color:#121111"/>
					</linearGradient>
					<polygon class="st40" points="144.6,224 168.4,224 170.9,227.8 144.6,227.8 					"/>
					<path class="st25" d="M144.4,227.8V224c0-0.1,0.1-0.2,0.2-0.2h23.8c0.1,0,0.1,0,0.1,0.1l2.5,3.8c0,0.1,0,0.1,0,0.2
						c0,0.1-0.1,0.1-0.2,0.1h-26.2C144.5,227.9,144.4,227.9,144.4,227.8z M168.3,224.1h-23.5v3.4h25.8L168.3,224.1z"/>
				</g>
			</g>
			<polygon class="st26" points="133.9,225 108.4,225 105.7,230 133.9,230 			"/>
			<g>
				<g>
					
						<linearGradient id="SVGID_7_" gradientUnits="userSpaceOnUse" x1="235.771" y1="288.509" x2="235.771" y2="298.6006" gradientTransform="matrix(-1 0 0 -1 355.521 525.6)">
						<stop  offset="7.134890e-03" style="stop-color:#191818"/>
						<stop  offset="0.176" style="stop-color:#444443"/>
						<stop  offset="0.3386" style="stop-color:#6C6C6B"/>
						<stop  offset="0.7313" style="stop-color:#1F1E1E"/>
						<stop  offset="0.9798" style="stop-color:#121111"/>
					</linearGradient>
					<polygon class="st41" points="132.9,225.6 106.6,227.8 106.6,229.4 132.9,229.4 					"/>
					<path class="st25" d="M106.4,229.4v-1.7c0-0.1,0.1-0.2,0.2-0.2l26.3-2.1c0.1,0,0.1,0,0.1,0l0.1,0.1v3.8c0,0.1-0.1,0.2-0.2,0.2
						h-26.3C106.5,229.6,106.4,229.5,106.4,229.4z M132.7,225.8l-25.9,2.1v1.3h25.9V225.8z"/>
				</g>
				<g>
					
						<linearGradient id="SVGID_8_" gradientUnits="userSpaceOnUse" x1="235.771" y1="309.1843" x2="235.771" y2="291.7434" gradientTransform="matrix(-1 0 0 -1 355.521 525.6)">
						<stop  offset="7.134890e-03" style="stop-color:#191818"/>
						<stop  offset="0.176" style="stop-color:#444443"/>
						<stop  offset="0.3386" style="stop-color:#6C6C6B"/>
						<stop  offset="0.7313" style="stop-color:#1F1E1E"/>
						<stop  offset="0.9798" style="stop-color:#121111"/>
					</linearGradient>
					<polygon class="st42" points="132.9,224 109.1,224 106.6,227.8 132.9,227.8 					"/>
					<path class="st25" d="M106.4,227.8c0-0.1,0-0.1,0.1-0.1l2.5-3.7l0.1-0.1h23.8c0.1,0,0.2,0.1,0.2,0.2v3.8c0,0.1-0.1,0.2-0.2,0.2
						h-26.3l0,0C106.5,227.9,106.4,227.9,106.4,227.8z M132.7,224.1h-23.5l-2.3,3.4h25.8V224.1z"/>
				</g>
			</g>
		</g>
	</g>
	<rect x="112" y="245.9" class="st1" width="52.3" height="10.7"/>
	<text transform="matrix(1 0 0 1 130.2483 255.2186)" class="st5 st43 st44">0V</text>
</g>
<g>
	<g id="rheostat">
		<g>
			<g>
				<polygon class="st45" points="586,475.3 578.5,475.3 578.3,475.3 578.3,485.9 586,485.9 				"/>
				<path class="st46" d="M578.7,474.5L578.7,474.5h7.4v0.2l-0.1,0.7h-7.5L578.7,474.5z M664,474.5L664,474.5h7.4v0.2l-0.1,0.7h-7.5
					L664,474.5z"/>
				<path class="st47" d="M586.1,485.5L586,486v-10.6l0.1-0.7V485.5z M671.4,485.5l-0.1,0.5v-10.6l0.1-0.7V485.5z"/>
				<polygon class="st45" points="671.3,475.3 663.8,475.3 663.6,475.3 663.6,485.9 671.3,485.9 				"/>
			</g>
			<g>
				<path class="st11" d="M578.4,482.3c0-1,0.4-1.8,1.1-2.5s1.6-1,2.7-1c1,0,2,0.4,2.7,1c0.7,0.7,1.1,1.5,1.1,2.5
					c0,0.9-0.4,1.8-1.1,2.4c-0.7,0.7-1.7,1-2.7,1s-1.9-0.4-2.7-1C578.8,484.1,578.4,483.2,578.4,482.3z M663.8,482.1
					c0-0.9,0.4-1.7,1.1-2.4c0.7-0.7,1.6-1,2.6-1s1.9,0.3,2.7,1c0.7,0.7,1.1,1.5,1.1,2.4s-0.4,1.7-1.1,2.3c-0.7,0.7-1.6,1-2.7,1
					c-1,0-1.9-0.3-2.6-1C664.2,483.7,663.8,482.9,663.8,482.1z"/>
			</g>
			<g>
				<path class="st48" d="M562.6,466.4c-0.1-0.5-0.1-1.1,0-1.8s0.1-1.3,0.2-1.8s0.2-0.7,0.3-0.7l0,0c0.1,0,0.1,0.3,0.2,0.7
					c0.1,0.5,0.1,1.1,0,1.8c-0.1,0.7-0.1,1.3-0.2,1.8s-0.2,0.8-0.3,0.8C562.7,467.1,562.7,466.9,562.6,466.4z M684.4,462.8
					c0.1,0.5,0.2,1.1,0.2,1.8s0.1,1.4,0,1.8c-0.1,0.5-0.1,0.7-0.2,0.7s-0.2-0.3-0.3-0.8s-0.2-1.1-0.2-1.8c-0.1-0.7-0.1-1.4,0-1.8
					c0.1-0.5,0.1-0.7,0.2-0.7l0,0C684.2,462,684.3,462.2,684.4,462.8z"/>
				<path class="st49" d="M563.1,462h-3.3c-0.1,0-0.2,0.3-0.3,0.7c-0.1,0.5-0.2,1.1-0.2,1.8c-0.1,0.7-0.1,1.4,0,1.8
					c0.1,0.5,0.1,0.7,0.2,0.7h3.3c-0.1,0-0.2-0.3-0.2-0.7c-0.1-0.5-0.1-1.1,0-1.8s0.1-1.3,0.2-1.8S563,462,563.1,462z"/>
				<path class="st49" d="M684.4,467.1h3c0.7-0.2,0.8-1.7,0.3-4.7c-0.1-0.3-0.2-0.4-0.3-0.4h-3.3c0.1,0,0.2,0.3,0.3,0.7
					c0.1,0.5,0.2,1.1,0.2,1.8c0.1,0.7,0.1,1.4,0,1.8C684.6,466.9,684.6,467.1,684.4,467.1z"/>
			</g>
			<g>
				<polygon class="st50" points="558.3,484 566.2,487.6 567,479.3 559.2,479.3 				"/>
				<path class="st51" d="M558.3,486.4l-0.1-2.3l7.9,3.6l-0.2,2.4L558.3,486.4z M690.3,484l-0.1,2.3l-7.6,3.7l-0.2-2.4L690.3,484z"
					/>
				<polygon class="st45" points="566.2,487.6 566,490.1 566.3,490.2 570.3,490.2 571.7,478.4 571.3,478.3 567.2,478.3 567,479.3 
									"/>
				<path class="st52" d="M571.3,478.3h-4.2l1.7-12.3h4.4l-1.5,12.3H571.3z M681.5,478.3h-4.2l-0.4,0.1l-1.5-12.3h4.4L681.5,478.3
					L681.5,478.3z"/>
				<path class="st53" d="M573.2,466l-0.7,12.4l-2.2,11.8v-0.1l1.4-11.8L573.2,466z M676.9,478.4l1.5,11.8l-2.2-11.7l-0.7-12.4
					L676.9,478.4z"/>
				<polygon class="st50" points="682.4,487.6 690.3,484 689.6,479.3 681.6,479.3 				"/>
				<polygon class="st45" points="682.6,490.1 682.4,487.6 681.6,479.3 681.5,478.3 677.3,478.3 676.9,478.4 678.4,490.2 
					682.4,490.2 				"/>
			</g>
			<g>
				<path class="st54" d="M571.8,479.4c-0.6,0-1-1.4-1.4-4.2c-0.3-2.9-0.4-6.2-0.3-10.2c0.1-4,0.4-7.4,0.9-10.2
					c0.5-2.8,1.1-4.2,1.7-4.3h-8.1c-0.6,0-1.1,1.5-1.7,4.3c-0.5,2.8-0.8,6.2-0.9,10.2s0,7.4,0.3,10.2c0.3,2.8,0.8,4.2,1.4,4.2H571.8
					z"/>
				
					<linearGradient id="SVGID_9_" gradientUnits="userSpaceOnUse" x1="192.9256" y1="949.5476" x2="193.952" y2="969.2698" gradientTransform="matrix(-1.4606 0 0 -1.4606 854.7834 1866.2476)">
					<stop  offset="0" style="stop-color:#615441"/>
					<stop  offset="0.1176" style="stop-color:#5C5246"/>
					<stop  offset="0.7608" style="stop-color:#7B7364"/>
					<stop  offset="1" style="stop-color:#A88F6C"/>
				</linearGradient>
				<path class="st55" d="M571.8,479.4L571.8,479.4c0.6,0,1.1-1.4,1.7-4.2c0.5-2.9,0.8-6.2,0.9-10.2c0.1-4,0-7.4-0.3-10.2
					c-0.3-2.8-0.8-4.2-1.4-4.3l0,0c-0.6,0-1.1,1.5-1.7,4.3c-0.5,2.8-0.8,6.2-0.9,10.2s0,7.4,0.3,10.2
					C570.8,478,571.3,479.4,571.8,479.4z"/>
				<path class="st54" d="M674.6,450.5c0.6,0,1.1,1.5,1.7,4.3c0.5,2.8,0.9,6.2,1,10.2c0.2,4,0.1,7.4-0.2,10.2
					c-0.3,2.8-0.8,4.2-1.3,4.2h8.1c0.6,0,1-1.4,1.3-4.2c0.3-2.9,0.4-6.2,0.2-10.2s-0.5-7.4-1-10.2c-0.5-2.8-1.1-4.2-1.7-4.3H674.6z"
					/>
				
					<linearGradient id="SVGID_10_" gradientUnits="userSpaceOnUse" x1="122.5019" y1="949.5106" x2="123.5431" y2="969.3036" gradientTransform="matrix(-1.4606 0 0 -1.4606 854.7834 1866.2476)">
					<stop  offset="0" style="stop-color:#615441"/>
					<stop  offset="0.1176" style="stop-color:#5C5246"/>
					<stop  offset="0.7608" style="stop-color:#7B7364"/>
					<stop  offset="1" style="stop-color:#A88F6C"/>
				</linearGradient>
				<path class="st56" d="M674.6,450.5L674.6,450.5c-0.6,0-1,1.5-1.4,4.3c-0.3,2.8-0.4,6.2-0.2,10.2s0.5,7.4,1,10.2
					c0.5,2.8,1.1,4.2,1.7,4.2l0,0c0.6,0,1-1.4,1.3-4.2c0.3-2.9,0.4-6.2,0.2-10.2s-0.5-7.4-1-10.2
					C675.7,451.9,675.1,450.5,674.6,450.5z"/>
			</g>
			<g>
				<path class="st57" d="M572.2,456.8c-0.3,2.2-0.5,4.8-0.6,8s-0.1,5.8,0.1,8c0.1,2,0.3,3.1,0.6,3.3h102.6c0.3-0.2,0.5-1.2,0.7-3.3
					c0.2-2.2,0.2-4.8,0.1-8c-0.1-3.2-0.3-5.8-0.6-8s-0.6-3.3-0.9-3.3H573.1C572.8,453.5,572.5,454.6,572.2,456.8z"/>
			</g>
			<g>
				<path class="st58" d="M580.4,482.6l-0.2-3.2c-0.3,0.1-0.5,0.3-0.7,0.5c-0.6,0.5-0.8,1.1-0.9,1.8c0,0.1,0,0.1,0,0.1l0.1,2.8
					c0.1-0.4,0.2-0.7,0.4-1c0.1-0.1,0.2-0.3,0.3-0.4C579.7,482.9,580,482.7,580.4,482.6z"/>
				
					<linearGradient id="SVGID_11_" gradientUnits="userSpaceOnUse" x1="186.851" y1="947.3714" x2="187.1955" y2="943.9586" gradientTransform="matrix(-1.4606 0 0 -1.4606 854.7834 1866.2476)">
					<stop  offset="0" style="stop-color:#AB926D"/>
					<stop  offset="1" style="stop-color:#625139"/>
				</linearGradient>
				<path class="st59" d="M584.5,485.7L584.5,485.7c0,0.1-0.1,0.2-0.1,0.2c-0.2,0.3-0.4,0.6-0.6,0.8c-0.5,0.5-1.2,0.7-2,0.7
					c-0.1,0-0.3,0-0.4,0c-0.7-0.1-1.2-0.3-1.8-0.7c-0.6-0.5-0.9-1.1-0.9-1.8c0-0.1,0-0.2,0-0.3v0.1c0-0.1,0-0.1,0-0.2
					c0.1-0.4,0.2-0.7,0.4-1c0.1-0.1,0.2-0.3,0.3-0.4c0.3-0.3,0.6-0.4,0.9-0.5c0.3-0.1,0.5-0.2,0.8-0.2c1.1-0.1,1.9,0.3,2.6,0.9
					c0.3,0.3,0.5,0.6,0.6,0.9C584.6,484.7,584.6,485.2,584.5,485.7L584.5,485.7z M580.5,486.2c0.3,0.3,0.7,0.4,1.1,0.4
					c0.4,0,0.8-0.2,1.2-0.4c0.3-0.3,0.5-0.6,0.5-1c0-0.1,0-0.2,0-0.3c-0.1-0.3-0.2-0.5-0.4-0.7c-0.3-0.3-0.7-0.4-1.2-0.4
					c-0.4,0-0.8,0.1-1.1,0.4l0,0l-0.1,0.1c-0.3,0.3-0.5,0.6-0.5,1C579.9,485.5,580.1,485.9,580.5,486.2z"/>
				<path class="st58" d="M584.8,480.1c-0.1-0.1-0.2-0.2-0.3-0.2c-0.7-0.6-1.6-0.9-2.5-0.9c-0.7,0-1.2,0.2-1.8,0.4l0.2,3.2
					c0.3-0.1,0.5-0.2,0.8-0.2c1.1-0.1,1.9,0.3,2.6,0.9L584.8,480.1z"/>
				<path class="st60" d="M579.9,485.2c0,0.4,0.2,0.7,0.5,1s0.7,0.4,1.1,0.4c0.4,0,0.8-0.2,1.2-0.4c0.3-0.3,0.5-0.6,0.5-1
					c0-0.1,0-0.2,0-0.3c-0.1-0.3-0.2-0.5-0.4-0.7c-0.3-0.3-0.7-0.4-1.2-0.4c-0.4,0-0.8,0.1-1.1,0.4l0,0l-0.1,0.1
					C580.1,484.5,579.9,484.8,579.9,485.2z"/>
				<path class="st58" d="M584.8,480.1l-1.1,3.3c0.3,0.3,0.5,0.6,0.6,0.9c0.2,0.4,0.2,0.9,0.2,1.5l0,0l0.9-2.3
					c0.1-0.2,0.2-0.4,0.3-0.6c0.1-0.4,0.2-0.8,0.1-1.2c-0.1-0.2-0.1-0.3-0.2-0.5C585.4,480.8,585.2,480.4,584.8,480.1z"/>
			</g>
			<g>
				<path class="st58" d="M665,479.8c-0.4,0.3-0.7,0.7-0.8,1.1c-0.3,0.6-0.3,1.1-0.2,1.7c0.1,0.2,0.2,0.4,0.3,0.6l0.8,2.3l0,0
					c-0.1-0.6,0-1,0.2-1.5c0.2-0.4,0.4-0.6,0.7-0.9L665,479.8z"/>
				<path class="st58" d="M669.7,482.7v-3.3c-0.6-0.4-1.2-0.5-1.9-0.6c-1-0.1-1.8,0.2-2.5,0.8c-0.1,0.1-0.1,0.1-0.2,0.2l0.9,3.4
					c0.7-0.6,1.5-0.9,2.6-0.8C668.9,482.4,669.4,482.5,669.7,482.7z"/>
				<path class="st61" d="M670.9,484.7L670.9,484.7c0,0.2,0,0.2,0,0.3c-0.1,0.7-0.4,1.3-1,1.8c-0.6,0.4-1.1,0.6-1.8,0.7
					c-0.1,0-0.3,0-0.4,0c-0.8-0.1-1.5-0.3-2-0.8c-0.3-0.3-0.5-0.6-0.6-0.9c0-0.1-0.1-0.1-0.1-0.2l0,0c-0.1-0.6,0-1,0.2-1.5
					c0.2-0.4,0.4-0.6,0.7-0.9c0.7-0.6,1.5-0.9,2.6-0.8c0.4,0.1,0.8,0.2,1.1,0.4c0.2,0.1,0.4,0.3,0.5,0.4s0.2,0.2,0.3,0.4
					c0.2,0.3,0.3,0.7,0.4,1C670.9,484.6,670.9,484.7,670.9,484.7z M668,486.5c0.5,0,0.9-0.1,1.2-0.4s0.5-0.6,0.5-1s-0.1-0.7-0.4-1
					c-0.3-0.3-0.7-0.4-1.2-0.5c-0.5,0-0.8,0.1-1.1,0.4s-0.5,0.6-0.5,1s0.2,0.7,0.5,1C667.1,486.3,667.5,486.5,668,486.5z"/>
				<path class="st60" d="M666.8,486c0.3,0.3,0.7,0.5,1.1,0.5c0.5,0,0.9-0.1,1.2-0.4s0.5-0.6,0.5-1s-0.1-0.7-0.4-1s-0.7-0.4-1.2-0.5
					s-0.8,0.1-1.1,0.4s-0.5,0.6-0.5,1C666.3,485.4,666.5,485.7,666.8,486z"/>
				<path class="st58" d="M669.7,482.7c0.2,0.1,0.4,0.3,0.5,0.4s0.2,0.2,0.3,0.4c0.2,0.3,0.3,0.7,0.4,1l0.2-2.8c0-0.7-0.3-1.4-0.8-2
					c-0.2-0.2-0.3-0.3-0.5-0.4L669.7,482.7z"/>
				<path class="st62" d="M666.8,486c0.3,0.3,0.7,0.5,1.1,0.5c0.5,0,0.9-0.1,1.2-0.4s0.5-0.6,0.5-1s-0.1-0.7-0.4-1s-0.7-0.4-1.2-0.5
					s-0.8,0.1-1.1,0.4s-0.5,0.6-0.5,1C666.3,485.4,666.5,485.7,666.8,486z"/>
			</g>
			<g>
				<g>
					<path class="st11" d="M569.3,450.5c-0.9,0.2-1.5,1.6-1.7,4.2h-4.1c0.3-2,0.5-3.4,0.5-4.2H569.3L569.3,450.5z M683.7,450.5
						L683.7,450.5c0.1,0.8,0.3,2.1,0.5,4.2h-4c-0.3-2.4-0.8-3.8-1.6-4.2h-0.1H683.7L683.7,450.5L683.7,450.5z"/>
				</g>
				<g>
					<path class="st48" d="M682.4,445.8c0.1,0,0.1-0.2,0.2-0.6s0.1-0.9,0.1-1.4c0-0.6-0.1-1-0.1-1.4c-0.1-0.4-0.1-0.6-0.2-0.6l0,0
						c-0.1,0-0.1,0.2-0.2,0.6c-0.1,0.4-0.1,0.8-0.1,1.4s0,1,0.1,1.4C682.2,445.6,682.3,445.8,682.4,445.8z"/>
					<path class="st63" d="M682.3,441.8c0.1,0,0.1,0.2,0.2,0.6c0.1,0.4,0.1,0.8,0.1,1.4s0,1-0.1,1.4s-0.1,0.6-0.2,0.6h2.5
						c0.1,0,0.2-0.2,0.2-0.6c0.1-0.4,0.1-0.9,0.1-1.4c-0.1-0.6-0.1-1-0.1-1.4c-0.1-0.4-0.1-0.6-0.2-0.6H682.3z"/>
				</g>
				<g>
					<path class="st63" d="M549.9,444h8.2c0-0.9,0.1-1.7,0.2-2.4c0.1-0.7,0.3-1,0.4-1l-8,0.7l0,0c-0.2,0-0.4,0.3-0.5,0.9
						C550,442.7,549.9,443.3,549.9,444z"/>
					<path class="st64" d="M558,444c0,0.1,0,0.1,0,0.2c0,1,0,1.8,0.1,2.5c0.1,0.6,0.2,0.9,0.3,1h0.1c0.1-0.1,0.3-0.4,0.4-1
						c0.1-0.7,0.2-1.6,0.2-2.5c0-0.1,0-0.2,0-0.2c0-0.9,0-1.7-0.1-2.4c-0.1-0.7-0.2-1-0.3-1l0,0c-0.1,0.1-0.3,0.4-0.4,1
						C558.1,442.3,558.1,443.1,558,444z"/>
					<path class="st63" d="M558.5,447.8L558.5,447.8c-0.2-0.1-0.3-0.5-0.4-1c-0.1-0.7-0.1-1.6-0.1-2.5c0-0.1,0-0.2,0-0.2h-8.2
						c0,0.1,0,0.1,0,0.2c-0.1,0.8,0,1.5,0.2,2c0.1,0.6,0.3,0.9,0.5,0.9l0,0l7.5,0.7C558,447.8,558.2,447.8,558.5,447.8z"/>
				</g>
				<g>
					
						<linearGradient id="SVGID_12_" gradientUnits="userSpaceOnUse" x1="206.0729" y1="970.9884" x2="205.9284" y2="976.2707" gradientTransform="matrix(-1.4606 0 0 -1.4606 854.7834 1866.2476)">
						<stop  offset="0" style="stop-color:#010101"/>
						<stop  offset="1" style="stop-color:#3C352C"/>
					</linearGradient>
					<path class="st65" d="M550.5,446.7l-0.3-0.6l7.3,0.6l0.2,0.6L550.5,446.7z M550.1,445.4c0-0.3-0.1-0.5-0.1-0.8l7.3,0.3
						c0.1,0.4,0.1,0.7,0.2,1.1L550.1,445.4z M557.3,442.9c0,0.3,0,0.6,0,0.9h-7.2c0-0.2,0.1-0.5,0.1-0.7L557.3,442.9z M557.6,441
						c-0.2,0.3-0.2,0.7-0.2,0.9l-7.3,0.5l0.2-0.7L557.6,441z"/>
				</g>
				<g>
					<path class="st66" d="M560,441c-0.1,0-0.2,0.3-0.3,0.8s-0.1,1.2-0.1,2.1s0.1,1.7,0.1,2.4c0.1,0.7,0.2,1,0.3,1s0.2-0.3,0.3-0.9
						s0.1-1.4,0.1-2.3s-0.1-1.7-0.1-2.3C560.2,441.3,560.1,441,560,441L560,441L560,441z"/>
					<path class="st67" d="M560,441h-1.2c-0.1,0-0.2,0.1-0.3,0.3c-0.3,1.9-0.3,3.8,0,5.9c0,0.2,0.1,0.2,0.2,0.2h1.2
						c-0.1,0-0.2-0.4-0.3-1c-0.1-0.7-0.1-1.5-0.1-2.4s0.1-1.6,0.1-2.1C559.8,441.3,559.9,441,560,441z"/>
				</g>
				<g>
					<path class="st68" d="M562.3,448.5c-0.2,0-0.3-0.4-0.4-1.2c-0.1-0.8-0.2-1.9-0.2-3c0-1.2,0.1-2.2,0.2-3.1
						c0.1-0.8,0.3-1.2,0.4-1.2h-2.1c-0.2,0-0.3,0.4-0.4,1.2c-0.1,0.8-0.2,1.9-0.2,3.1s0.1,2.2,0.2,3s0.3,1.2,0.4,1.2H562.3z"/>
					<path class="st48" d="M562.3,448.5c0.2,0,0.3-0.5,0.4-1.3s0.2-1.9,0.2-3c0-1.2-0.1-2.2-0.2-3.1c-0.1-0.8-0.3-1.2-0.4-1.2l0,0
						c-0.2,0-0.3,0.4-0.4,1.2c-0.1,0.8-0.2,1.9-0.2,3.1s0.1,2.2,0.2,3S562.1,448.4,562.3,448.5z"/>
				</g>
				<g>
					<path class="st67" d="M564.2,448.8c-0.2,0-0.3-0.5-0.5-1.4c-0.1-0.9-0.2-2-0.2-3.3s0.1-2.4,0.2-3.3s0.3-1.4,0.5-1.4h-2.3
						c-0.2,0-0.3,0.5-0.5,1.4c-0.1,0.9-0.2,2-0.2,3.3s0.1,2.4,0.2,3.3c0.1,0.9,0.3,1.4,0.5,1.4H564.2z"/>
					<path class="st48" d="M564.2,448.8c0.2,0,0.3-0.5,0.4-1.4c0.2-0.9,0.2-2,0.2-3.3s-0.1-2.4-0.2-3.3c-0.1-0.9-0.3-1.3-0.4-1.3
						l0,0c-0.2,0-0.3,0.5-0.5,1.4c-0.1,0.9-0.2,2-0.2,3.3s0.1,2.4,0.2,3.3C563.9,448.3,564.1,448.8,564.2,448.8z"/>
				</g>
				<g>
					<path class="st69" d="M680.3,454.5L680.3,454.5c-0.5-2.9-1.1-4.3-1.9-4V442c0-0.1,0-0.2,0-0.3c0-0.2,0.1-0.4,0.1-0.5l0.1-0.5
						c0-0.1,0-0.2,0-0.2c0.2-1.7,0.5-2.5,0.8-2.5c0.2,0,0.4,0.3,0.5,0.9c0.1,0.4,0.2,0.9,0.3,1.6c0,0.1,0,0.1,0,0.2s0,0.2,0,0.2
						l0.1,1c0,0.1,0,0.1,0,0.2L680.3,454.5L680.3,454.5z M567.3,454.5V442c0,0,0.1-0.6,0.2-1.7c0.2-1.1,0.4-2,0.8-2.4
						c0.5,0,0.8,1,0.9,2.9v9.7C568.3,450.6,567.7,452,567.3,454.5L567.3,454.5L567.3,454.5z"/>
					<path class="st50" d="M567.3,454.5V442c0,0,0.1-0.6,0.2-1.7c0.2-1.1,0.4-2,0.8-2.4h-3.5c-0.6,0.4-0.9,1.4-1,3.1
						c-0.1,0.3-0.1,0.6-0.1,0.9v12.6H567.3L567.3,454.5z"/>
					<path class="st50" d="M680.3,454.5h3.7v-12.6c-0.1-0.5-0.1-0.9-0.2-1.3c0-0.1,0-0.1,0-0.2c-0.1-0.6-0.2-1.1-0.3-1.6
						s-0.3-0.8-0.4-0.9s-0.1-0.1-0.1-0.1h-3.7c0.2,0,0.4,0.3,0.5,0.9c0.1,0.4,0.2,0.9,0.3,1.6c0,0.1,0,0.1,0,0.2s0,0.2,0,0.2l0.1,1
						c0,0.1,0,0.1,0,0.2L680.3,454.5L680.3,454.5L680.3,454.5z"/>
				</g>
				<g>
					<path class="st48" d="M570.6,439.5L570.6,439.5c0.2,0,0.3,0.5,0.4,1.3c0.2,0.9,0.2,2,0.2,3.3s-0.1,2.4-0.2,3.3
						s-0.3,1.4-0.4,1.4c-0.1,0-0.3-0.5-0.5-1.4c-0.1-0.9-0.2-2-0.2-3.3s0.1-2.4,0.2-3.3C570.2,440,570.4,439.5,570.6,439.5
						L570.6,439.5z M677.6,440.9c0.1,0.9,0.2,2,0.2,3.3s-0.1,2.4-0.2,3.3s-0.3,1.4-0.5,1.4s-0.3-0.5-0.4-1.4c-0.2-0.9-0.2-2-0.2-3.3
						s0.1-2.4,0.2-3.3c0.1-0.9,0.3-1.3,0.4-1.3l0,0C677.3,439.5,677.5,440,677.6,440.9z"/>
					<path class="st63" d="M570.6,439.5h-2.3c-0.2,0-0.3,0.5-0.5,1.4c-0.1,0.9-0.2,2-0.2,3.3s0.1,2.4,0.2,3.3s0.3,1.4,0.5,1.4h2.3
						c-0.2,0-0.3-0.5-0.5-1.4c-0.1-0.9-0.2-2-0.2-3.3s0.1-2.4,0.2-3.3S570.4,439.5,570.6,439.5z"/>
					<path class="st63" d="M677.1,448.8h2.3c0.2,0,0.3-0.5,0.5-1.4c0.1-0.9,0.2-2,0.2-3.3s-0.1-2.4-0.2-3.3
						c-0.1-0.9-0.3-1.4-0.5-1.4h-2.3c0.2,0,0.3,0.5,0.5,1.4c0.1,0.9,0.2,2,0.2,3.3s-0.1,2.4-0.2,3.3S677.3,448.8,677.1,448.8z"/>
				</g>
				<g>
					<polygon class="st70" points="570.2,442.3 677.5,442.3 677,440.3 570.7,440.3 					"/>
					<polygon class="st71" points="677.5,442.3 570.2,442.3 570.5,447.1 677.2,447.1 					"/>
				</g>
			</g>
			<g>
				<path class="st72" d="M584.1,465.1v1.4l0,0c-0.1,2.9,0.1,5.3,0.3,7.4c0.3,2.4,0.7,3.7,1.2,3.7h78.6c0.5,0,0.9-1.2,1.2-3.7
					c0.2-2.1,0.3-4.5,0.3-7.4l0,0v-1.4c-0.1-2.8-0.3-5.2-0.5-7.3c-0.1-0.5-0.2-1-0.2-1.5c-0.4-2.4-0.9-3.6-1.4-3.6h-77.4
					c-0.5,0-0.9,1.2-1.4,3.6c-0.1,0.5-0.2,1-0.2,1.5C584.4,459.9,584.2,462.3,584.1,465.1z"/>
				<path class="st73" d="M584.8,456.3c-0.1,0.5-0.2,1-0.2,1.5c-0.3,2.1-0.4,4.6-0.5,7.3c0,0.5,0,0.9,0,1.4
					c-0.1,2.9,0.1,5.3,0.3,7.4c0.3,2.4,0.7,3.7,1.2,3.7h-7.3c-0.5,0-0.9-1.2-1.2-3.7c-0.3-2.4-0.4-5.3-0.3-8.7
					c0.1-3.4,0.4-6.3,0.7-8.8c0.4-2.4,0.9-3.6,1.4-3.6h7.3C585.8,452.7,585.3,453.9,584.8,456.3z M665.1,457.8
					c-0.1-0.5-0.2-1-0.2-1.5c-0.4-2.4-0.9-3.6-1.4-3.6h7.4c0.5,0,0.9,1.2,1.4,3.6c0.4,2.4,0.6,5.4,0.7,8.8c0.1,3.4,0,6.3-0.3,8.7
					c-0.3,2.4-0.7,3.7-1.2,3.7h-7.4c0.5,0,0.9-1.2,1.2-3.7c0.2-2.1,0.3-4.5,0.3-7.4c0-0.4,0-0.9,0-1.4
					C665.5,462.3,665.4,459.9,665.1,457.8z"/>
			</g>
			<g>
				<path class="st74" d="M633.4,466.4c0,4-0.1,7.9-0.3,11.9c0,0.1-0.1,0.2-0.1,0.2c-0.1,0.1-0.1,0.1-0.2,0.1s-0.2-0.1-0.2-0.1
					c-0.1-0.1-0.1-0.1-0.1-0.2c0.2-3.9,0.3-7.9,0.3-11.8c0-4.3-0.1-8.7-0.4-13c0-0.1,0-0.2,0.1-0.2c0.1-0.1,0.1-0.1,0.2-0.1
					s0.2,0,0.2,0.1c0.1,0.1,0.1,0.1,0.1,0.2C633.3,457.8,633.4,462.1,633.4,466.4z M634,453.2c0.1,0,0.2,0,0.2,0.1
					c0.1,0.1,0.1,0.1,0.1,0.2c0.3,4.3,0.4,8.6,0.4,13c0,4-0.1,8-0.4,12c0,0.1-0.1,0.2-0.1,0.2s-0.1,0.1-0.2,0.1s-0.2-0.1-0.2-0.1
					c-0.1-0.1-0.1-0.1-0.1-0.2c0.2-4,0.4-8,0.4-11.9c0-4.4-0.2-8.6-0.4-12.9c0-0.1,0-0.2,0.1-0.2C633.8,453.2,633.9,453.2,634,453.2
					z M632.3,466.4c0,3.9-0.1,7.9-0.3,11.9c0,0.1-0.1,0.2-0.1,0.2c-0.1,0.1-0.1,0.1-0.2,0.1c-0.1,0-0.2-0.1-0.2-0.1
					c-0.1-0.1-0.1-0.1-0.1-0.2c0.2-4,0.3-7.9,0.3-11.8c0-4.4-0.2-8.7-0.4-13c0-0.1,0-0.2,0.1-0.2c0.1-0.1,0.1-0.1,0.2-0.1
					c0.1,0,0.2,0,0.2,0.1c0.1,0.1,0.1,0.1,0.1,0.2C632.1,457.7,632.3,462.1,632.3,466.4z M630.4,453.2c0.1,0,0.2,0,0.2,0.1
					c0.1,0.1,0.1,0.1,0.1,0.2c0.2,4.3,0.3,8.6,0.3,13c0,4-0.1,8-0.3,12c0,0.1-0.1,0.2-0.1,0.2c-0.1,0.1-0.1,0.1-0.2,0.1
					s-0.2-0.1-0.2-0.1s-0.1-0.1-0.1-0.2c0.2-4,0.3-8,0.3-11.9c0-4.3-0.1-8.6-0.3-12.9c0-0.1,0-0.2,0.1-0.2
					C630.2,453.2,630.3,453.2,630.4,453.2z M628.2,453.2c0.1,0.1,0.1,0.1,0.1,0.2c0.2,4.4,0.3,8.7,0.3,13c0,4-0.1,7.9-0.3,11.9
					c0,0.1-0.1,0.2-0.1,0.2c-0.1,0.1-0.1,0.1-0.2,0.1s-0.2-0.1-0.2-0.1c-0.1-0.1-0.1-0.1-0.1-0.2c0.2-4,0.3-7.9,0.3-11.9
					c0-4.3-0.1-8.6-0.3-13c0-0.1,0-0.2,0.1-0.2c0.1-0.1,0.1-0.1,0.2-0.1C628.1,453.2,628.2,453.2,628.2,453.2z M629.3,453.2
					c0.1,0,0.2,0,0.2,0.1c0.1,0.1,0.1,0.1,0.1,0.2c0.3,4.3,0.4,8.6,0.4,13c0,4-0.1,8-0.3,12c0,0.1-0.1,0.2-0.1,0.2
					c-0.1,0.1-0.1,0.1-0.2,0.1s-0.2-0.1-0.2-0.1s-0.1-0.1-0.1-0.2c0.2-4,0.3-8,0.3-11.9c0-4.4-0.1-8.6-0.4-12.9c0-0.1,0-0.2,0.1-0.2
					C629.1,453.2,629.1,453.2,629.3,453.2z M624.8,478.3c0,0.1-0.1,0.2-0.1,0.2c-0.1,0.1-0.1,0.1-0.2,0.1s-0.2-0.1-0.2-0.1
					c-0.1-0.1-0.1-0.1-0.1-0.2c-0.1-8.3-0.1-16.6,0-24.9c0-0.1,0.1-0.2,0.1-0.2c0.1-0.1,0.1-0.1,0.2-0.1c0.1,0,0.2,0.1,0.2,0.1
					c0.1,0.1,0.1,0.1,0.1,0.2C624.8,461.7,624.8,470,624.8,478.3z M626,478.3c0,0.1-0.1,0.2-0.1,0.2c-0.1,0.1-0.1,0.1-0.2,0.1
					c-0.1,0-0.2-0.1-0.2-0.1c-0.1-0.1-0.1-0.1-0.1-0.2c0.3-8.2,0.3-16.5-0.1-24.8c0-0.1,0-0.2,0.1-0.2c0.1-0.1,0.1-0.1,0.2-0.1
					s0.2,0,0.2,0.1s0.1,0.1,0.1,0.2C626.2,461.8,626.2,470.1,626,478.3z M627,453.2c0.1,0.1,0.1,0.1,0.1,0.2c0.2,4.3,0.4,8.6,0.4,13
					c0,3.9-0.1,7.9-0.3,11.9c0,0.1-0.1,0.2-0.1,0.2c-0.1,0.1-0.1,0.1-0.2,0.1s-0.2-0.1-0.2-0.1c-0.1-0.1-0.1-0.1-0.1-0.2
					c0.2-4,0.3-8,0.3-11.9c0-4.4-0.1-8.7-0.4-13c0-0.1,0-0.2,0.1-0.2c0.1-0.1,0.1-0.1,0.2-0.1C626.9,453.2,627,453.2,627,453.2z
					 M645,453.4c0.4,4.2,0.6,8.4,0.6,12.7c0,4.1-0.2,8.1-0.5,12.2c0,0.1-0.1,0.1-0.1,0.2c-0.1,0.1-0.1,0.1-0.2,0.1
					c-0.1,0-0.1-0.1-0.2-0.1c-0.1-0.1-0.1-0.1-0.1-0.2c0.4-4.1,0.5-8.2,0.5-12.2c0-4.3-0.2-8.5-0.6-12.6c0-0.1,0-0.2,0.1-0.2
					c0.1-0.1,0.1-0.1,0.2-0.1c0.1,0,0.2,0,0.2,0.1C644.9,453.3,645,453.3,645,453.4z M643.8,453.4c0.6,8.4,0.6,16.6,0.1,24.9
					c0,0.1-0.1,0.2-0.1,0.2c-0.1,0.1-0.1,0.1-0.2,0.1s-0.2-0.1-0.2-0.1c-0.1-0.1-0.1-0.1-0.1-0.2c0.6-8.2,0.6-16.5-0.1-24.8
					c0-0.1,0-0.2,0.1-0.2c0.1-0.1,0.1-0.1,0.2-0.1c0.1,0,0.2,0,0.2,0.1C643.7,453.3,643.7,453.3,643.8,453.4z M641.9,466.5
					c0,3.9-0.2,7.8-0.4,11.8c0,0.1-0.1,0.2-0.1,0.2c-0.1,0.1-0.1,0.1-0.2,0.1c-0.1,0-0.2-0.1-0.2-0.1c-0.1-0.1-0.1-0.1-0.1-0.2
					c0.3-4,0.4-7.9,0.4-11.7c0-4.4-0.2-8.8-0.6-13.1c0-0.1,0-0.2,0.1-0.2c0.1-0.1,0.1-0.1,0.2-0.1c0.1,0,0.2,0,0.2,0.1
					c0.1,0.1,0.1,0.1,0.1,0.2C641.7,457.7,641.9,462.1,641.9,466.5z M642.3,453.2c0.1,0,0.2,0,0.2,0.1c0.1,0.1,0.1,0.1,0.1,0.2
					c0.3,4.4,0.5,8.8,0.5,13.2c0,4-0.2,7.9-0.4,11.8c0,0.1-0.1,0.2-0.1,0.2s-0.1,0.1-0.2,0.1c-0.1,0-0.2-0.1-0.2-0.1
					c-0.1-0.1-0.1-0.1-0.1-0.2c0.3-3.9,0.4-7.8,0.4-11.7c0-4.4-0.2-8.7-0.5-13.1c0-0.1,0-0.2,0.1-0.2
					C642.2,453.2,642.2,453.2,642.3,453.2z M639,453.4c0.3,4.3,0.5,8.6,0.5,13c0,4-0.2,7.9-0.4,11.9c0,0.1-0.1,0.2-0.1,0.2
					c-0.1,0.1-0.1,0.1-0.2,0.1c-0.1,0-0.2-0.1-0.2-0.1c-0.1-0.1-0.1-0.1-0.1-0.2c0.3-4,0.4-7.9,0.4-11.9c0-4.4-0.2-8.7-0.5-13
					c0-0.1,0-0.2,0.1-0.2c0.1-0.1,0.1-0.1,0.2-0.1c0.1,0,0.2,0,0.2,0.1C639,453.3,639,453.3,639,453.4z M640.6,466.4
					c0,4-0.1,8-0.4,11.9c0,0.1-0.1,0.2-0.1,0.2c-0.1,0.1-0.1,0.1-0.2,0.1c-0.1,0-0.2-0.1-0.2-0.1c-0.1-0.1-0.1-0.1-0.1-0.2
					c0.3-3.9,0.4-7.9,0.4-11.9c0-4.3-0.2-8.6-0.5-13c0-0.1,0-0.2,0.1-0.2c0.1-0.1,0.1-0.1,0.2-0.1s0.2,0,0.2,0.1
					c0.1,0.1,0.1,0.1,0.1,0.2C640.4,457.8,640.6,462.1,640.6,466.4z M637.1,466.5c0,3.9-0.1,7.8-0.4,11.8c0,0.1-0.1,0.2-0.1,0.2
					c-0.1,0.1-0.1,0.1-0.2,0.1c-0.1,0-0.2-0.1-0.2-0.1c-0.1-0.1-0.1-0.1-0.1-0.2c0.3-4,0.4-7.9,0.4-11.7c0-4.4-0.2-8.8-0.5-13.1
					c0-0.1,0-0.2,0.1-0.2c0.1-0.1,0.1-0.1,0.2-0.1s0.2,0,0.2,0.1c0.1,0.1,0.1,0.1,0.1,0.2C637,457.8,637.1,462.1,637.1,466.5z
					 M637.7,453.2c0.1,0.1,0.1,0.1,0.1,0.2c0.3,4.4,0.4,8.8,0.4,13.2c0,4-0.1,7.9-0.4,11.8c0,0.1-0.1,0.2-0.1,0.2s-0.1,0.1-0.2,0.1
					s-0.2-0.1-0.2-0.1c-0.1-0.1-0.1-0.1-0.1-0.2c0.2-3.9,0.4-7.8,0.4-11.7c0-4.4-0.2-8.7-0.4-13.1c0-0.1,0-0.2,0.1-0.2
					c0.1-0.1,0.1-0.1,0.2-0.1C637.6,453.2,637.7,453.2,637.7,453.2z M635.8,466.3c0,4-0.1,8-0.3,12c0,0.1-0.1,0.2-0.1,0.2
					c-0.1,0.1-0.1,0.1-0.2,0.1c-0.1,0-0.2-0.1-0.2-0.1c-0.1-0.1-0.1-0.1-0.1-0.2c0.2-4,0.3-8,0.3-11.9c0-4.3-0.1-8.6-0.4-12.9
					c0-0.1,0-0.2,0.1-0.2c0.1-0.1,0.1-0.1,0.2-0.1c0.1,0,0.2,0,0.2,0.1c0.1,0.1,0.1,0.1,0.1,0.2C635.7,457.8,635.8,462,635.8,466.3z
					 M655.2,466.2c0,4-0.2,8.1-0.6,12.1c0,0.1-0.1,0.1-0.1,0.2c-0.1,0.1-0.1,0.1-0.2,0.1s-0.2-0.1-0.2-0.1c-0.1-0.1-0.1-0.1-0.1-0.2
					c0.4-4.1,0.6-8.1,0.6-12.1c0-4.3-0.3-8.5-0.7-12.7c0-0.1,0-0.2,0.1-0.2c0.1-0.1,0.1-0.1,0.2-0.1s0.2,0,0.2,0.1
					c0.1,0.1,0.1,0.1,0.1,0.2C654.9,457.7,655.2,461.9,655.2,466.2z M656.3,466.2c0,4.1-0.2,8.1-0.6,12.1c0,0.1-0.1,0.1-0.1,0.2
					c-0.1,0.1-0.1,0.1-0.2,0.1s-0.1-0.1-0.2-0.1c-0.1-0.1-0.1-0.1-0.1-0.2c0.4-4,0.6-8,0.6-12.1c0-4.2-0.2-8.5-0.6-12.7
					c0-0.1,0-0.2,0.1-0.2c0.1-0.1,0.1-0.1,0.2-0.1c0.1,0,0.2,0,0.2,0.1c0.1,0.1,0.1,0.1,0.1,0.2C656.1,457.7,656.3,462,656.3,466.2z
					 M652.7,462.6L652.7,462.6c0.1,5.2-0.1,10.4-0.6,15.7c0,0.1-0.1,0.1-0.1,0.2c-0.1,0.1-0.1,0.1-0.2,0.1s-0.2-0.1-0.2-0.1
					c-0.1-0.1-0.1-0.1-0.1-0.2c0.5-5.3,0.7-10.5,0.6-15.6l0,0c-0.1-3.1-0.3-6.1-0.6-9.2c0-0.1,0-0.2,0.1-0.2
					c0.1-0.1,0.1-0.1,0.2-0.1c0.1,0,0.2,0,0.2,0.1c0.1,0.1,0.1,0.1,0.1,0.2C652.4,456.5,652.6,459.5,652.7,462.6z M653.8,462.5
					c0.2,5.3,0,10.5-0.5,15.8c0,0.1-0.1,0.1-0.1,0.2c-0.1,0.1-0.1,0.1-0.2,0.1s-0.1-0.1-0.2-0.1c-0.1-0.1-0.1-0.1-0.1-0.2
					c0.5-5.2,0.6-10.4,0.5-15.7c-0.1-3-0.3-6.1-0.6-9.1c0-0.1,0-0.2,0.1-0.2s0.1-0.1,0.2-0.1c0.1,0,0.2,0,0.2,0.1
					c0.1,0.1,0.1,0.1,0.1,0.2C653.5,456.5,653.7,459.5,653.8,462.5z M650.3,466.1c0,4.1-0.2,8.1-0.6,12.2c0,0.1-0.1,0.1-0.1,0.2
					c-0.1,0.1-0.1,0.1-0.2,0.1s-0.1-0.1-0.2-0.1c-0.1,0-0.1-0.1-0.1-0.2c0.4-4.1,0.6-8.2,0.6-12.2c0-4.3-0.2-8.5-0.6-12.6
					c0-0.1,0-0.2,0.1-0.2c0.1-0.1,0.1-0.1,0.2-0.1c0.1,0,0.2,0,0.2,0.1c0.1,0.1,0.1,0.1,0.1,0.2
					C650.1,457.6,650.3,461.8,650.3,466.1z M651.4,466.1c0,4.1-0.2,8.2-0.5,12.2c0,0.1-0.1,0.1-0.1,0.2c-0.1,0.1-0.1,0.1-0.2,0.1
					c-0.1,0-0.1-0.1-0.2-0.1c-0.1-0.1-0.1-0.1-0.1-0.2c0.4-4.1,0.5-8.1,0.5-12.2c0-4.2-0.2-8.4-0.6-12.6c0-0.1,0-0.2,0.1-0.2
					c0.1-0.1,0.1-0.1,0.2-0.1c0.1,0,0.2,0,0.2,0.1c0.1,0.1,0.1,0.1,0.1,0.2C651.3,457.7,651.4,461.9,651.4,466.1z M646.1,453.2
					c0.1,0.1,0.1,0.1,0.1,0.2c0.3,4.3,0.5,8.5,0.5,12.7c0,4.1-0.2,8.2-0.5,12.2c0,0.1-0.1,0.1-0.1,0.2c-0.1,0.1-0.1,0.1-0.2,0.1
					c-0.1,0-0.1-0.1-0.2-0.1c-0.1-0.1-0.1-0.1-0.1-0.2c0.3-4.1,0.5-8.1,0.5-12.2c0-4.2-0.2-8.4-0.5-12.6c0-0.1,0-0.2,0.1-0.2
					s0.1-0.1,0.2-0.1S646,453.2,646.1,453.2z M648.2,453.2c0.1,0,0.2,0,0.2,0.1c0.1,0.1,0.1,0.1,0.1,0.2c0.3,3.1,0.4,6.1,0.5,9.2
					c0.1,5.3,0,10.6-0.5,15.8c0,0.1-0.1,0.1-0.1,0.2c-0.1,0.1-0.1,0.1-0.2,0.1c-0.1,0-0.1-0.1-0.2-0.1c-0.1-0.1-0.1-0.1-0.1-0.2
					c0.4-5.2,0.6-10.4,0.5-15.7c-0.1-3-0.2-6.1-0.5-9.1c0-0.1,0-0.2,0.1-0.2C648.1,453.2,648.1,453.2,648.2,453.2z M647.4,453.4
					c0.3,3,0.4,6.1,0.5,9.2l0,0c0.1,5.2-0.1,10.4-0.5,15.7c0,0.1-0.1,0.1-0.1,0.2c-0.1,0.1-0.1,0.1-0.2,0.1c-0.1,0-0.1-0.1-0.2-0.1
					c-0.1-0.1-0.1-0.1-0.1-0.2c0.5-5.3,0.6-10.5,0.5-15.6l0,0c-0.1-3.1-0.3-6.1-0.5-9.2c0-0.1,0-0.2,0.1-0.2
					c0.1-0.1,0.1-0.1,0.2-0.1s0.2,0,0.2,0.1C647.4,453.3,647.4,453.3,647.4,453.4z M664.3,453.9c0.4,4.1,0.7,8.2,0.7,12.3
					c0,4.1-0.2,8.1-0.7,12.2c0,0.1-0.1,0.2-0.1,0.2c-0.1,0.1-0.1,0.1-0.2,0.1s-0.2-0.1-0.2-0.1c-0.1-0.1-0.1-0.1-0.1-0.2
					c0.5-4,0.7-8.1,0.7-12.1c0-4.1-0.2-8.1-0.7-12.2c0-0.1,0-0.2,0.1-0.2c0.1-0.1,0.1-0.1,0.2-0.1
					C664.1,453.8,664.2,453.8,664.3,453.9C664.2,453.8,664.3,453.8,664.3,453.9z M663,453.4c0.6,4.2,0.8,8.5,0.8,12.7
					c0,4-0.3,8.1-0.7,12.2c0,0.1-0.1,0.2-0.1,0.2c-0.1,0.1-0.1,0.1-0.2,0.1c-0.1,0-0.2-0.1-0.2-0.1c-0.1-0.1-0.1-0.1-0.1-0.2
					c0.5-4.1,0.7-8.1,0.7-12.1c0-4.3-0.3-8.5-0.8-12.7c0-0.1,0-0.2,0.1-0.2c0.1-0.1,0.1-0.1,0.2-0.1c0.1,0,0.2,0,0.2,0.1
					C663,453.2,663,453.3,663,453.4z M660.4,453.4c0.5,4.3,0.7,8.5,0.7,12.8c0,4.1-0.2,8.1-0.7,12.1c0,0.1-0.1,0.2-0.1,0.2
					c-0.1,0.1-0.1,0.1-0.2,0.1c-0.1,0-0.2-0.1-0.2-0.1c-0.1-0.1-0.1-0.1-0.1-0.2c0.4-4,0.7-8,0.7-12.1c0-4.2-0.3-8.5-0.7-12.7
					c0-0.1,0-0.2,0.1-0.2c0.1-0.1,0.1-0.1,0.2-0.1s0.2,0,0.2,0.1C660.3,453.3,660.4,453.3,660.4,453.4z M661.6,453.4
					c1,8.2,1,16.4,0.1,24.9c0,0.1-0.1,0.2-0.1,0.2c-0.1,0.1-0.1,0.1-0.2,0.1c-0.1,0-0.2-0.1-0.2-0.1c-0.1-0.1-0.1-0.1-0.1-0.2
					c1-8.4,0.9-16.7-0.1-24.8c0-0.1,0-0.2,0.1-0.2s0.1-0.1,0.2-0.1s0.2,0,0.2,0.1C661.5,453.3,661.6,453.3,661.6,453.4z
					 M657.6,462.7c0.2,5.2-0.1,10.4-0.6,15.6c0,0.1-0.1,0.2-0.1,0.2c-0.1,0.1-0.1,0.1-0.2,0.1c-0.1,0-0.2-0.1-0.2-0.1
					c-0.1-0.1-0.1-0.1-0.1-0.2c0.6-5.3,0.7-10.4,0.6-15.6c-0.1-3.1-0.3-6.2-0.7-9.3c0-0.1,0-0.2,0.1-0.2c0.1-0.1,0.1-0.1,0.2-0.1
					c0.1,0,0.2,0,0.2,0.1c0.1,0.1,0.1,0.1,0.1,0.2C657.2,456.5,657.4,459.6,657.6,462.7z M658.9,453.2c0.1,0,0.2,0,0.2,0.1
					c0.1,0.1,0.1,0.1,0.1,0.2c0.5,4.2,0.8,8.5,0.8,12.8c0,4-0.2,8.1-0.7,12.1c0,0.1-0.1,0.2-0.1,0.2c-0.1,0.1-0.1,0.1-0.2,0.1
					s-0.2-0.1-0.2-0.1c-0.1-0.1-0.1-0.1-0.1-0.2c0.5-4.1,0.7-8.1,0.7-12.1c0-4.3-0.3-8.5-0.8-12.7c0-0.1,0-0.2,0.1-0.2
					C658.7,453.2,658.8,453.2,658.9,453.2z M658.6,462.6c0.2,5.3,0,10.5-0.6,15.7c0,0.1-0.1,0.1-0.1,0.2c-0.1,0.1-0.1,0.1-0.2,0.1
					c-0.1,0-0.1-0.1-0.2-0.1c-0.1,0-0.1-0.1-0.1-0.2c0.5-5.2,0.7-10.4,0.6-15.6c-0.1-3.1-0.3-6.1-0.6-9.2c0-0.1,0-0.2,0.1-0.2
					c0.1-0.1,0.1-0.1,0.2-0.1c0.1,0,0.2,0,0.2,0.1c0.1,0.1,0.1,0.1,0.1,0.2C658.3,456.5,658.5,459.6,658.6,462.6z M590.7,462.8
					c-0.2,5.2,0.1,10.3,0.8,15.5c0,0.1,0,0.2-0.1,0.2c-0.1,0.1-0.1,0.1-0.2,0.1c-0.1,0-0.2,0-0.2-0.1c-0.1-0.1-0.1-0.1-0.1-0.2
					c-0.7-5.2-0.9-10.4-0.8-15.6c0.1-3.1,0.4-6.2,0.8-9.4c0-0.1,0.1-0.1,0.1-0.2c0.1-0.1,0.1-0.1,0.2-0.1s0.1,0.1,0.2,0.1
					c0.1,0.1,0.1,0.1,0.1,0.2C591,456.6,590.8,459.7,590.7,462.8z M589.6,462.7c-0.2,5.3,0.1,10.4,0.7,15.6c0,0.1,0,0.2-0.1,0.2
					s-0.1,0.1-0.2,0.1c-0.1,0-0.2,0-0.2-0.1c-0.1-0.1-0.1-0.1-0.1-0.2c-0.7-5.2-0.9-10.4-0.7-15.7c0.2-3.1,0.4-6.2,0.8-9.3
					c0-0.1,0.1-0.2,0.1-0.2c0.1-0.1,0.1-0.1,0.2-0.1c0.1,0,0.2,0.1,0.2,0.1c0.1,0.1,0.1,0.1,0.1,0.2
					C590,456.6,589.7,459.6,589.6,462.7z M587.7,476.5c0.1,0.6,0.2,1.1,0.3,1.7c0,0.1,0,0.2-0.1,0.2c-0.1,0.1-0.1,0.1-0.2,0.1
					c-0.1,0-0.2,0-0.2-0.1c-0.1-0.1-0.1-0.1-0.1-0.2c-0.1-0.6-0.2-1.1-0.3-1.7c-0.9-7.5-0.8-15.3,0.3-23.2c0-0.1,0.1-0.1,0.1-0.2
					c0.1-0.1,0.1-0.1,0.2-0.1s0.1,0.1,0.2,0.1c0.1,0,0.1,0.1,0.1,0.2C586.9,461.3,586.7,469,587.7,476.5z M588.8,476.4
					c0.1,0.6,0.2,1.2,0.3,1.9c0,0.1,0,0.2-0.1,0.2c-0.1,0.1-0.1,0.1-0.2,0.1c-0.1,0-0.2,0-0.2-0.1c-0.1-0.1-0.1-0.1-0.1-0.2
					c-0.1-0.6-0.2-1.3-0.3-1.9c-0.9-7.7-0.8-15.3,0.4-23c0-0.1,0.1-0.1,0.1-0.2c0.1-0.1,0.1-0.1,0.2-0.1c0.1,0,0.2,0.1,0.2,0.1
					c0.1,0.1,0.1,0.1,0.1,0.2C588,461.1,587.9,468.7,588.8,476.4z M586.5,453.2c0.1,0,0.2,0.1,0.2,0.1c0.1,0.1,0.1,0.1,0.1,0.2
					c-1.3,8.3-1.3,16.5-0.1,24.8c0,0.1,0,0.2-0.1,0.2c-0.1,0.1-0.1,0.1-0.2,0.1c-0.1,0-0.2,0-0.2-0.1c-0.1-0.1-0.1-0.1-0.1-0.2
					c-1.2-8.3-1.2-16.6,0.1-24.9c0-0.1,0.1-0.1,0.1-0.2C586.4,453.2,586.4,453.1,586.5,453.2z M602.2,453.4
					c-0.4,4.3-0.6,8.5-0.6,12.6s0.2,8.2,0.6,12.2c0,0.1,0,0.2-0.1,0.2c-0.1,0.1-0.1,0.1-0.2,0.1c-0.1,0-0.2,0-0.2-0.1
					c-0.1-0.1-0.1-0.1-0.1-0.2c-0.4-4-0.6-8.1-0.6-12.2c0-4.2,0.2-8.4,0.6-12.7c0-0.1,0.1-0.2,0.1-0.2c0.1-0.1,0.1-0.1,0.2-0.1
					c0.1,0,0.1,0.1,0.2,0.1C602.1,453.3,602.2,453.4,602.2,453.4z M601,453.5c-0.4,3.1-0.6,6.1-0.7,9.2c-0.2,5.2,0.1,10.4,0.7,15.6
					c0,0.1,0,0.2-0.1,0.2c-0.1,0.1-0.1,0.1-0.2,0.1c-0.1,0-0.2,0-0.2-0.1c-0.1-0.1-0.1-0.1-0.1-0.2c-0.6-5.3-0.8-10.5-0.7-15.7
					c0.1-3.1,0.3-6.1,0.7-9.2c0-0.1,0.1-0.1,0.1-0.2c0.1-0.1,0.1-0.1,0.2-0.1s0.2,0.1,0.2,0.1C601,453.3,601,453.4,601,453.5z
					 M599.2,462.6c-0.2,5.3,0,10.5,0.6,15.7c0,0.1,0,0.2-0.1,0.2c-0.1,0.1-0.1,0.1-0.2,0.1s-0.2,0-0.2-0.1c-0.1-0.1-0.1-0.1-0.1-0.2
					c-0.6-5.2-0.8-10.5-0.6-15.8c0.1-3,0.3-6.1,0.6-9.2c0-0.1,0.1-0.2,0.1-0.2c0.1-0.1,0.1-0.1,0.2-0.1c0.1,0,0.1,0.1,0.2,0.1
					c0.1,0,0.1,0.1,0.1,0.2C599.5,456.5,599.3,459.6,599.2,462.6z M598.4,453.2c0.1,0,0.2,0.1,0.2,0.1c0.1,0.1,0.1,0.1,0.1,0.2
					c-0.5,4.2-0.8,8.4-0.8,12.7c0,4,0.3,8.1,0.7,12.1c0,0.1,0,0.2-0.1,0.2c-0.1,0.1-0.1,0.1-0.2,0.1s-0.2,0-0.2-0.1
					c-0.1-0.1-0.1-0.1-0.1-0.2c-0.5-4.1-0.7-8.1-0.7-12.2c0-4.3,0.3-8.5,0.8-12.7c0-0.1,0.1-0.2,0.1-0.2
					C598.3,453.2,598.4,453.1,598.4,453.2z M595.5,462.6c-0.2,5.2,0.1,10.4,0.7,15.6c0,0.1,0,0.2-0.1,0.2c-0.1,0.1-0.1,0.1-0.2,0.1
					s-0.2,0-0.2-0.1c-0.1-0.1-0.1-0.1-0.1-0.2c-0.7-5.3-0.9-10.5-0.7-15.7c0.1-3.1,0.4-6.1,0.8-9.3c0-0.1,0.1-0.1,0.1-0.2
					c0.1-0.1,0.1-0.1,0.2-0.1c0.1,0,0.2,0.1,0.2,0.1c0.1,0.1,0.1,0.1,0.1,0.2C595.9,456.6,595.6,459.6,595.5,462.6z M596.7,466.1
					c0,4.1,0.2,8.1,0.7,12.1c0,0.1,0,0.2-0.1,0.2c-0.1,0.1-0.1,0.1-0.2,0.1c-0.1,0-0.2,0-0.2-0.1c-0.1-0.1-0.1-0.1-0.1-0.2
					c-0.5-4-0.7-8.1-0.7-12.2c0-4.2,0.3-8.4,0.7-12.7c0-0.1,0.1-0.2,0.1-0.2c0.1-0.1,0.1-0.1,0.2-0.1s0.2,0.1,0.2,0.1
					c0.1,0.1,0.1,0.1,0.1,0.2C597,457.7,596.7,462,596.7,466.1z M592.7,453.5c-0.5,4.3-0.8,8.6-0.8,12.8c0,4.1,0.3,8.1,0.8,12
					c0,0.1,0,0.2-0.1,0.2c-0.1,0.1-0.1,0.1-0.2,0.1s-0.2,0-0.2-0.1c-0.1-0.1-0.1-0.1-0.1-0.2c-0.5-4-0.8-8-0.8-12.1
					c0-4.2,0.3-8.5,0.8-12.8c0-0.1,0.1-0.2,0.1-0.2c0.1-0.1,0.1-0.1,0.2-0.1c0.1,0,0.2,0.1,0.2,0.1
					C592.7,453.3,592.7,453.4,592.7,453.5z M593,466.2c0,4,0.3,8,0.8,12c0,0.1,0,0.2-0.1,0.2s-0.1,0.1-0.2,0.1c-0.1,0-0.2,0-0.2-0.1
					c-0.1-0.1-0.1-0.1-0.1-0.2c-0.5-4.1-0.8-8.1-0.8-12.1c0-4.3,0.3-8.6,0.9-12.8c0-0.1,0.1-0.1,0.1-0.2c0.1-0.1,0.1-0.1,0.2-0.1
					s0.1,0.1,0.2,0.1c0.1,0,0.1,0.1,0.1,0.2C593.3,457.7,593,462,593,466.2z M594.8,453.2c0.1,0,0.2,0.1,0.2,0.1
					c0.1,0.1,0.1,0.1,0.1,0.2c-0.4,3.1-0.6,6.1-0.7,9.1c-0.2,5.3,0,10.5,0.6,15.7c0,0.1,0,0.2-0.1,0.2c-0.1,0.1-0.1,0.1-0.2,0.1
					s-0.2,0-0.2-0.1c-0.1-0.1-0.1-0.1-0.1-0.2c-0.6-5.2-0.8-10.4-0.6-15.8c0.1-3,0.4-6.1,0.7-9.2c0-0.1,0.1-0.2,0.1-0.2
					C594.7,453.2,594.8,453.1,594.8,453.2z M612.8,453.2c0.1,0,0.1,0.1,0.2,0.1c0.1,0.1,0.1,0.1,0.1,0.2c-0.3,3.2-0.4,6.3-0.5,9.5
					c-0.1,5.2,0,10.3,0.4,15.3c0,0.1,0,0.2-0.1,0.2c-0.1,0.1-0.1,0.1-0.2,0.1c-0.1,0-0.2,0-0.2-0.1c-0.1-0.1-0.1-0.1-0.1-0.2
					c-0.4-5.1-0.5-10.2-0.4-15.4c0.1-3.2,0.2-6.3,0.5-9.5c0-0.1,0.1-0.2,0.1-0.2C612.7,453.2,612.7,453.2,612.8,453.2z M611.8,453.4
					c-0.4,4.3-0.6,8.7-0.6,13.1c0,3.9,0.2,7.8,0.5,11.7c0,0.1,0,0.2-0.1,0.2s-0.1,0.1-0.2,0.1c-0.1,0-0.2,0-0.2-0.1
					c-0.1-0.1-0.1-0.1-0.1-0.2c-0.3-4-0.5-7.9-0.5-11.8c0-4.4,0.2-8.8,0.6-13.2c0-0.1,0.1-0.2,0.1-0.2c0.1-0.1,0.1-0.1,0.2-0.1
					c0.1,0,0.1,0.1,0.2,0.1C611.8,453.3,611.9,453.4,611.8,453.4z M608.9,463.1c-0.1,5,0.1,10.1,0.5,15.2c0,0.1,0,0.2-0.1,0.2
					c-0.1,0.1-0.1,0.1-0.2,0.1c-0.1,0-0.2,0-0.2-0.1c-0.1-0.1-0.1-0.1-0.1-0.2c-0.4-5.1-0.6-10.2-0.5-15.2c0.1-3.2,0.3-6.5,0.6-9.7
					c0-0.1,0.1-0.2,0.1-0.2c0.1-0.1,0.1-0.1,0.2-0.1s0.1,0.1,0.2,0.1c0.1,0.1,0.1,0.1,0.1,0.2C609.1,456.7,608.9,459.8,608.9,463.1z
					 M610.4,453.2c0.1,0,0.1,0.1,0.2,0.1c0.1,0.1,0.1,0.1,0.1,0.2c-0.4,4.4-0.5,8.7-0.5,13.1c0,4,0.2,7.9,0.5,11.7
					c0,0.1,0,0.2-0.1,0.2c-0.1,0.1-0.1,0.1-0.2,0.1c-0.1,0-0.2,0-0.2-0.1c-0.1-0.1-0.1-0.1-0.1-0.2c-0.3-3.9-0.5-7.8-0.5-11.8
					c0-4.4,0.2-8.7,0.5-13.2c0-0.1,0.1-0.2,0.1-0.2C610.3,453.2,610.3,453.2,610.4,453.2z M606.4,466.5c0,3.9,0.2,7.8,0.6,11.7
					c0,0.1,0,0.2-0.1,0.2s-0.1,0.1-0.2,0.1c-0.1,0-0.2,0-0.2-0.1c-0.1-0.1-0.1-0.1-0.1-0.2c-0.4-4-0.6-7.9-0.6-11.8
					c0-4.4,0.3-8.8,0.7-13.2c0-0.1,0.1-0.2,0.1-0.2c0.1-0.1,0.1-0.1,0.2-0.1c0.1,0,0.2,0.1,0.2,0.1c0.1,0.1,0.1,0.1,0.1,0.2
					C606.7,457.8,606.4,462.2,606.4,466.5z M608.2,453.2c0.1,0.1,0.1,0.1,0.1,0.2c-0.3,3.2-0.4,6.4-0.5,9.6l0,0
					c-0.1,5.2,0,10.2,0.4,15.2c0,0.1,0,0.2-0.1,0.2c-0.1,0.1-0.1,0.1-0.2,0.1s-0.2,0-0.2-0.1c-0.1-0.1-0.1-0.1-0.1-0.2
					c-0.4-5-0.6-10.1-0.4-15.3l0,0c0.1-3.2,0.3-6.4,0.5-9.6c0-0.1,0.1-0.2,0.1-0.2c0.1-0.1,0.1-0.1,0.2-0.1
					C608.1,453.2,608.2,453.2,608.2,453.2z M603.3,453.2c0.1,0.1,0.1,0.1,0.1,0.2c-0.5,4.2-0.7,8.4-0.7,12.6c0,4,0.2,8.1,0.6,12.2
					c0,0.1,0,0.2-0.1,0.2c-0.1,0.1-0.1,0.1-0.2,0.1c-0.1,0-0.2,0-0.2-0.1s-0.1-0.1-0.1-0.2c-0.4-4.1-0.6-8.2-0.6-12.2
					c0-4.3,0.2-8.5,0.7-12.7c0-0.1,0.1-0.2,0.1-0.2c0.1-0.1,0.1-0.1,0.2-0.1C603.2,453.2,603.2,453.2,603.3,453.2z M605.7,453.2
					c0.1,0,0.2,0.1,0.2,0.1c0.1,0.1,0.1,0.1,0.1,0.2c-0.4,4.4-0.6,8.8-0.6,13.1c0,4,0.2,7.9,0.5,11.7c0,0.1,0,0.2-0.1,0.2
					c-0.1,0.1-0.1,0.1-0.2,0.1c-0.1,0-0.2,0-0.2-0.1c-0.1-0.1-0.1-0.1-0.1-0.2c-0.4-3.9-0.5-7.8-0.5-11.8c0-4.3,0.2-8.7,0.6-13.2
					c0-0.1,0.1-0.2,0.1-0.2C605.5,453.2,605.6,453.2,605.7,453.2z M604.5,453.2c0.1,0,0.2,0.1,0.2,0.1c0.1,0.1,0.1,0.1,0.1,0.2
					c-0.6,5.4-0.8,10.9-0.7,16.4c0.1,2.8,0.3,5.6,0.6,8.4c0,0.1,0,0.2-0.1,0.2c-0.1,0.1-0.1,0.1-0.2,0.1c-0.1,0-0.2,0-0.2-0.1
					c-0.1-0.1-0.1-0.1-0.1-0.2c-0.3-2.8-0.5-5.6-0.6-8.5l0,0c-0.2-5.4,0-10.9,0.6-16.4c0-0.1,0.1-0.2,0.1-0.2
					c0.1-0.1,0.1-0.1,0.2-0.1h0.1C604.4,453.2,604.4,453.2,604.5,453.2z M622.5,453.4c-0.4,8.4-0.5,16.6-0.1,24.8
					c0,0.1,0,0.2-0.1,0.2s-0.1,0.1-0.2,0.1c-0.1,0-0.2,0-0.2-0.1c-0.1-0.1-0.1-0.1-0.1-0.2c-0.4-8.2-0.4-16.5,0.1-24.9
					c0-0.1,0.1-0.2,0.1-0.2s0.1-0.1,0.2-0.1s0.2,0.1,0.2,0.1C622.5,453.3,622.5,453.4,622.5,453.4z M623.7,453.4
					c-0.1,8.3-0.1,16.6,0,24.9c0,0.1,0,0.2-0.1,0.2c-0.1,0.1-0.1,0.1-0.2,0.1s-0.2-0.1-0.2-0.1c-0.1-0.1-0.1-0.1-0.1-0.2
					c-0.1-8.3-0.1-16.5,0-24.9c0-0.1,0.1-0.2,0.1-0.2c0.1-0.1,0.1-0.1,0.2-0.1c0.1,0,0.2,0.1,0.2,0.1
					C623.6,453.3,623.7,453.3,623.7,453.4z M619.8,466.4c0,4,0.1,7.9,0.3,11.9c0,0.1,0,0.2-0.1,0.2s-0.1,0.1-0.2,0.1
					c-0.1,0-0.2,0-0.2-0.1c-0.1-0.1-0.1-0.1-0.1-0.2c-0.2-4-0.3-7.9-0.3-11.9c0-4.3,0.1-8.6,0.4-13c0-0.1,0.1-0.2,0.1-0.2
					c0.1-0.1,0.1-0.1,0.2-0.1c0.1,0,0.2,0.1,0.2,0.1c0.1,0.1,0.1,0.1,0.1,0.2C619.9,457.8,619.8,462.1,619.8,466.4z M620.9,466.4
					c0,3.9,0.1,7.9,0.4,11.9c0,0.1,0,0.2-0.1,0.2c-0.1,0.1-0.1,0.1-0.2,0.1c-0.1,0-0.2,0-0.2-0.1c-0.1-0.1-0.1-0.1-0.1-0.2
					c-0.2-4-0.4-8-0.4-11.9c0-4.4,0.2-8.7,0.4-13c0-0.1,0.1-0.2,0.1-0.2c0.1-0.1,0.1-0.1,0.2-0.1s0.2,0.1,0.2,0.1
					c0.1,0.1,0.1,0.1,0.1,0.2C621,457.7,620.9,462,620.9,466.4z M617.4,466.3c0,4,0.1,8,0.4,12c0,0.1,0,0.2-0.1,0.2
					c-0.1,0.1-0.1,0.1-0.2,0.1c-0.1,0-0.2,0-0.2-0.1c-0.1-0.1-0.1-0.1-0.1-0.2c-0.2-4-0.4-8-0.4-12c0-4.3,0.2-8.6,0.4-12.9
					c0-0.1,0.1-0.2,0.1-0.2s0.1-0.1,0.2-0.1s0.2,0.1,0.2,0.1c0.1,0.1,0.1,0.1,0.1,0.2C617.5,457.8,617.4,462,617.4,466.3z
					 M619,453.4c-0.3,4.3-0.5,8.5-0.5,12.9c0,4,0.1,8,0.4,12c0,0.1,0,0.2-0.1,0.2c-0.1,0.1-0.1,0.1-0.2,0.1c-0.1,0-0.2,0-0.2-0.1
					c-0.1-0.1-0.1-0.1-0.1-0.2c-0.3-4-0.4-8-0.4-12c0-4.3,0.2-8.6,0.5-12.9c0-0.1,0.1-0.2,0.1-0.2c0.1-0.1,0.1-0.1,0.2-0.1
					s0.2,0.1,0.2,0.1C618.9,453.3,619,453.4,619,453.4z M614,453.2c0.1,0,0.2,0.1,0.2,0.1c0.1,0.1,0.1,0.1,0.1,0.2
					c-0.3,3.2-0.4,6.3-0.5,9.5c-0.1,5,0.1,10.2,0.4,15.3c0,0.1,0,0.2-0.1,0.2c-0.1,0.1-0.1,0.1-0.2,0.1c-0.1,0-0.2,0-0.2-0.1
					c-0.1-0.1-0.1-0.1-0.1-0.2c-0.4-5.2-0.5-10.3-0.4-15.4c0.1-3.2,0.3-6.3,0.5-9.5c0-0.1,0.1-0.2,0.1-0.2
					C613.9,453.2,613.9,453.2,614,453.2z M615.4,453.2c0.1,0.1,0.1,0.1,0.1,0.2c-0.3,4.4-0.5,8.7-0.5,13c0,4,0.2,7.9,0.4,11.9
					c0,0.1,0,0.2-0.1,0.2c-0.1,0.1-0.1,0.1-0.2,0.1c-0.1,0-0.2,0-0.2-0.1c-0.1-0.1-0.1-0.1-0.1-0.2c-0.3-4-0.4-7.9-0.4-11.9
					c0-4.3,0.2-8.6,0.5-13c0-0.1,0.1-0.2,0.1-0.2c0.1-0.1,0.1-0.1,0.2-0.1C615.3,453.2,615.3,453.2,615.4,453.2z M616.4,453.2
					c0.1,0,0.2,0.1,0.2,0.1c0.1,0.1,0.1,0.1,0.1,0.2c-0.4,4.3-0.5,8.6-0.5,13c0,3.9,0.2,7.9,0.4,11.9c0,0.1,0,0.2-0.1,0.2
					c-0.1,0.1-0.1,0.1-0.2,0.1s-0.2,0-0.2-0.1c-0.1-0.1-0.1-0.1-0.1-0.2c-0.3-4-0.4-8-0.4-11.9c0-4.4,0.2-8.7,0.5-13
					c0-0.1,0.1-0.2,0.1-0.2C616.2,453.2,616.3,453.2,616.4,453.2z"/>
			</g>
			<g>
				
					<radialGradient id="SVGID_13_" cx="185.2296" cy="966.1923" r="8.2851" gradientTransform="matrix(-1.4606 0 0 -1.4606 854.7834 1866.2476)" gradientUnits="userSpaceOnUse">
					<stop  offset="0" style="stop-color:#FFFFFF;stop-opacity:0.4627"/>
					<stop  offset="0.5333" style="stop-color:#FFFFFF;stop-opacity:0.1686"/>
					<stop  offset="1" style="stop-color:#FFFFFF;stop-opacity:0"/>
				</radialGradient>
				<path class="st75" d="M586.1,452.7h-0.6c-2.2,4.5-2.3,12.5-0.6,24.2c0,0.1,0.1,0.2,0.1,0.2c0.1,0.1,0.1,0.1,0.2,0.1
					s0.2-0.1,0.2-0.1c0.1-0.1,0.1-0.1,0.1-0.2C583.7,465.1,583.9,457.1,586.1,452.7C586.1,452.8,586.1,452.8,586.1,452.7z"/>
				
					<radialGradient id="SVGID_14_" cx="194.0212" cy="961.3984" r="7.7426" gradientTransform="matrix(-1.4606 0 0 -1.4606 854.7834 1866.2476)" gradientUnits="userSpaceOnUse">
					<stop  offset="0" style="stop-color:#FFFFFF;stop-opacity:0.4627"/>
					<stop  offset="0.5333" style="stop-color:#FFFFFF;stop-opacity:0.1686"/>
					<stop  offset="1" style="stop-color:#FFFFFF;stop-opacity:0"/>
				</radialGradient>
				<path class="st76" d="M572.7,450.7c-0.1-0.1-0.1-0.1-0.2-0.2s-0.2-0.1-0.2,0c-0.1,0.1-0.1,0.1-0.2,0.2c-1.9,4-2.5,11.5-1.9,22.8
					c0,0.1,0.1,0.2,0.1,0.2c0.1,0.1,0.1,0.1,0.2,0.1s0.2-0.1,0.2-0.1c0.1-0.1,0.1-0.1,0.1-0.2c-0.6-11.1,0-18.6,1.8-22.5
					C572.7,450.8,572.7,450.7,572.7,450.7z"/>
				
					<radialGradient id="SVGID_15_" cx="121.5882" cy="963.1529" r="9.2988" gradientTransform="matrix(-1.4606 0 0 -1.4606 854.7834 1866.2476)" gradientUnits="userSpaceOnUse">
					<stop  offset="0" style="stop-color:#FFFFFF;stop-opacity:0.4627"/>
					<stop  offset="0.5333" style="stop-color:#FFFFFF;stop-opacity:0.1686"/>
					<stop  offset="1" style="stop-color:#FFFFFF;stop-opacity:0"/>
				</radialGradient>
				<path class="st77" d="M674.7,450.5c0,0.1,0,0.1,0,0.2c2.2,6.6,2.7,15.6,1.6,26.9c0,0.1,0,0.2,0.1,0.2c0.1,0.1,0.1,0.1,0.2,0.1
					c0.1,0,0.2,0,0.2-0.1c0.1-0.1,0.1-0.1,0.1-0.2c1.1-11.4,0.6-20.5-1.6-27.2L674.7,450.5L674.7,450.5z"/>
				
					<radialGradient id="SVGID_16_" cx="130.2352" cy="963.949" r="8.5024" gradientTransform="matrix(-1.4606 0 0 -1.4606 854.7834 1866.2476)" gradientUnits="userSpaceOnUse">
					<stop  offset="0" style="stop-color:#FFFFFF;stop-opacity:0.4627"/>
					<stop  offset="0.5333" style="stop-color:#FFFFFF;stop-opacity:0.1686"/>
					<stop  offset="1" style="stop-color:#FFFFFF;stop-opacity:0"/>
				</radialGradient>
				<path class="st78" d="M664.4,452.7h-0.5c0,0.1,0,0.1,0,0.1c2.2,8.2,2.3,16.5,0.4,24.7v0.1h0.5
					C666.8,469.3,666.7,461,664.4,452.7z"/>
			</g>
		</g>
	</g>
	
		<image style="overflow:visible;enable-background:new    ;" width="400" height="200" xlink:href="pointermagneto.png"  transform="matrix(-0.1547 0 0 0.1547 650.14 433.9836)">
	</image>
</g>
<g>
	<g>
		
			<linearGradient id="SVGID_17_" gradientUnits="userSpaceOnUse" x1="93.471" y1="36.306" x2="93.471" y2="105.7771" gradientTransform="matrix(-1 0 0 -1 355.521 525.6)">
			<stop  offset="7.134890e-03" style="stop-color:#191818"/>
			<stop  offset="0.176" style="stop-color:#444443"/>
			<stop  offset="0.3386" style="stop-color:#6C6C6B"/>
			<stop  offset="0.7313" style="stop-color:#1F1E1E"/>
			<stop  offset="0.9798" style="stop-color:#121111"/>
		</linearGradient>
		<rect x="217.6" y="435.2" class="st79" width="88.9" height="42"/>
		<path class="st25" d="M217.4,477.2v-42c0-0.1,0.1-0.2,0.2-0.2h88.9c0.1,0,0.2,0.1,0.2,0.2v42c0,0.1-0.1,0.2-0.2,0.2h-88.9
			C217.5,477.3,217.4,477.2,217.4,477.2z M306.3,435.3h-88.5v41.6h88.5V435.3z"/>
	</g>
	<rect x="217.6" y="475.8" class="st26" width="88.9" height="1.3"/>
	<rect x="217.6" y="435.2" class="st26" width="88.9" height="2.5"/>
	<g>
		
			<linearGradient id="SVGID_18_" gradientUnits="userSpaceOnUse" x1="93.421" y1="101.8013" x2="93.421" y2="74.8295" gradientTransform="matrix(-1 0 0 -1 355.521 525.6)">
			<stop  offset="7.134890e-03" style="stop-color:#191818"/>
			<stop  offset="0.176" style="stop-color:#444443"/>
			<stop  offset="0.3386" style="stop-color:#6C6C6B"/>
			<stop  offset="0.7313" style="stop-color:#1F1E1E"/>
			<stop  offset="0.9798" style="stop-color:#121111"/>
		</linearGradient>
		<rect x="215.8" y="433.8" class="st80" width="92.6" height="2.6"/>
		<path class="st25" d="M215.6,436.3v-2.6c0-0.1,0.1-0.2,0.2-0.2h92.6c0.1,0,0.2,0.1,0.2,0.2v2.6c0,0.1-0.1,0.2-0.2,0.2h-92.6
			C215.7,436.6,215.6,436.5,215.6,436.3z M308.2,434.1H216v2.2h92.2V434.1z"/>
	</g>
	<rect x="225.3" y="439.2" class="st26" width="73.9" height="33.8"/>
	<g>
		
			<linearGradient id="SVGID_19_" gradientUnits="userSpaceOnUse" x1="93.321" y1="38.4206" x2="93.321" y2="100.792" gradientTransform="matrix(-1 0 0 -1 355.521 525.6)">
			<stop  offset="7.134890e-03" style="stop-color:#191818"/>
			<stop  offset="0.176" style="stop-color:#444443"/>
			<stop  offset="0.3386" style="stop-color:#6C6C6B"/>
			<stop  offset="0.7313" style="stop-color:#1F1E1E"/>
			<stop  offset="0.9798" style="stop-color:#121111"/>
		</linearGradient>
		<rect x="227.2" y="440.7" class="st81" width="70" height="30.5"/>
		<path class="st25" d="M227,471.2v-30.5c0-0.1,0.1-0.2,0.2-0.2h70c0.1,0,0.2,0.1,0.2,0.2v30.5c0,0.1-0.1,0.2-0.2,0.2h-70
			C227.1,471.5,227,471.3,227,471.2z M297,440.9h-69.6V471H297V440.9z"/>
	</g>
	<g>
		
			<linearGradient id="SVGID_20_" gradientUnits="userSpaceOnUse" x1="93.471" y1="110.1223" x2="93.471" y2="80.6753" gradientTransform="matrix(-1 0 0 -1 355.521 525.6)">
			<stop  offset="7.134890e-03" style="stop-color:#191818"/>
			<stop  offset="0.176" style="stop-color:#444443"/>
			<stop  offset="0.3386" style="stop-color:#6C6C6B"/>
			<stop  offset="0.7313" style="stop-color:#1F1E1E"/>
			<stop  offset="0.9798" style="stop-color:#121111"/>
		</linearGradient>
		<polygon class="st82" points="221.2,423.3 303,423.3 308.3,433.8 283.1,433.8 241.1,433.8 215.8,433.8 		"/>
		<path class="st25" d="M215.6,433.9c0-0.1,0-0.1,0-0.2l5.4-10.5c0-0.1,0.1-0.1,0.2-0.1H303c0.1,0,0.1,0,0.2,0.1l5.4,10.5
			c0,0.1,0,0.1,0,0.2s-0.1,0.1-0.2,0.1h-92.6C215.7,434.1,215.6,433.9,215.6,433.9z M302.9,423.6h-81.6l-5.2,10.1H308L302.9,423.6z"
			/>
	</g>
	<polygon class="st30" points="219.1,427.5 221.2,423.3 303,423.3 305.1,427.5 301.7,424.1 222.1,424.1 	"/>
	<g>
		<g>
			<g>
				<g>
					<path class="st31" d="M298.7,424.1v1.5c0,0.6-3.1,1-6.9,1s-6.9-0.5-6.9-1v-1.5H298.7z"/>
					<path class="st32" d="M284.6,425.6v-1.5c0-0.1,0.1-0.2,0.2-0.2h13.9c0.1,0,0.2,0.1,0.2,0.2v1.5c0,1.2-6.9,1.2-7.1,1.2
						C291.5,426.7,284.6,426.7,284.6,425.6z M285,424.2v1.3c0.1,0.3,2.5,0.8,6.7,0.8s6.6-0.5,6.7-0.8v-1.3H285z"/>
				</g>
			</g>
			<g>
				<path class="st31" d="M297,424.1h1.8v1.5c0,0.3-0.7,0.5-1.8,0.7V424.1z"/>
				<path class="st31" d="M290.9,424.1v2.5c-3.4-0.1-6.1-0.5-6.1-1v-1.5H290.9z"/>
			</g>
			<g>
				<path class="st33" d="M284.8,424.1c0-0.6,3.1-1,6.9-1s6.9,0.5,6.9,1c0,0.6-3.1,1-6.9,1S284.8,424.7,284.8,424.1z"/>
				<path class="st32" d="M284.6,424.1c0-1.2,6.8-1.2,7.1-1.2c0.3,0,7.1,0,7.1,1.2s-6.9,1.2-7.1,1.2
					C291.5,425.2,284.6,425.2,284.6,424.1z M285,424.1c0.1,0.3,2.5,0.8,6.7,0.8s6.6-0.5,6.7-0.8c-0.1-0.3-2.5-0.8-6.7-0.8
					C287.5,423.2,285.2,423.7,285,424.1z"/>
			</g>
			<path class="st31" d="M284.8,424.1c0-0.6,3.1-1,6.9-1s6.9,0.5,6.9,1c0,0.6-3.1,1-6.9,1S284.8,424.7,284.8,424.1z"/>
			<g>
				<g>
					<path class="st31" d="M288.3,415.7h6.6l1.4,7.8l0,0v0.1c0,0.6-2.1,1.1-4.7,1.1s-4.7-0.5-4.7-1.1L288.3,415.7z"/>
					<path class="st32" d="M286.7,423.7l1.4-7.9c0-0.1,0.1-0.2,0.2-0.2h6.6c0.1,0,0.2,0.1,0.2,0.2l1.4,7.8c0,0.1,0,0.1,0,0.2
						c0,1-2.9,1.3-4.9,1.3C289.7,424.9,286.7,424.7,286.7,423.7z M294.8,415.9h-6.3l-1.4,7.7c0,0.3,1.5,0.9,4.5,0.9s4.5-0.6,4.5-1
						c0,0,0,0,0-0.1L294.8,415.9z"/>
				</g>
				<path class="st31" d="M295.1,422.7c-0.2-2.4-0.6-4.7-1-7h0.8l1.4,7.8l0,0v0.1c0,0.3-0.4,0.5-1.1,0.7
					C295.2,423.8,295.1,423.3,295.1,422.7z"/>
				<path class="st31" d="M288.3,415.7h2.6c0.1,1.8,0.2,7.9,0.2,9c-2.4-0.1-4.2-0.5-4.2-1.1L288.3,415.7z"/>
				<g>
					<path class="st33" d="M288.3,415.7c0-0.4,1.5-0.8,3.3-0.8s3.3,0.4,3.3,0.8s-1.5,0.8-3.3,0.8
						C289.8,416.6,288.3,416.2,288.3,415.7z"/>
					<path class="st32" d="M288.1,415.7c0-0.8,2.3-1,3.5-1s3.5,0.2,3.5,1s-2.3,1-3.5,1S288.1,416.6,288.1,415.7z M288.5,415.7
						c0,0.2,1,0.6,3.1,0.6s3.1-0.4,3.1-0.6s-1-0.6-3.1-0.6C289.5,415.2,288.6,415.6,288.5,415.7z"/>
				</g>
			</g>
		</g>
		<g>
			<g>
				<g>
					<path class="st34" d="M240.1,424.1v1.5c0,0.6-3.1,1-6.9,1s-6.9-0.5-6.9-1v-1.5H240.1z"/>
					<path class="st35" d="M226.1,425.6v-1.5c0-0.1,0.1-0.2,0.2-0.2h13.9c0.1,0,0.2,0.1,0.2,0.2v1.5c0,1.2-6.9,1.2-7.1,1.2
						C232.9,426.7,226.1,426.7,226.1,425.6z M226.4,424.2v1.3c0.1,0.3,2.5,0.8,6.7,0.8s6.6-0.5,6.7-0.8v-1.3H226.4z"/>
				</g>
			</g>
			<g class="st36">
				<path class="st34" d="M238.4,424.1h1.8v1.5c0,0.3-0.7,0.5-1.8,0.7V424.1z"/>
				<path class="st34" d="M232.3,424.1v2.5c-3.4-0.1-6.1-0.5-6.1-1v-1.5H232.3z"/>
			</g>
			<g>
				<path class="st33" d="M226.3,424.1c0-0.6,3.1-1,6.9-1s6.9,0.5,6.9,1c0,0.6-3.1,1-6.9,1S226.3,424.7,226.3,424.1z"/>
				<path class="st32" d="M226.1,424.1c0-1.2,6.9-1.2,7.1-1.2c0.3,0,7.1,0,7.1,1.2s-6.9,1.2-7.1,1.2
					C232.9,425.2,226.1,425.2,226.1,424.1z M226.4,424.1c0.1,0.3,2.5,0.8,6.7,0.8s6.6-0.5,6.7-0.8c-0.1-0.3-2.5-0.8-6.7-0.8
					C229,423.2,226.6,423.7,226.4,424.1z"/>
			</g>
			<g>
				<path class="st37" d="M226.3,424.1c0-0.6,3.1-1,6.9-1s6.9,0.5,6.9,1c0,0.6-3.1,1-6.9,1S226.3,424.7,226.3,424.1z"/>
				<path class="st35" d="M226.1,424.1c0-1.2,6.9-1.2,7.1-1.2c0.3,0,7.1,0,7.1,1.2s-6.9,1.2-7.1,1.2
					C232.9,425.2,226.1,425.2,226.1,424.1z M226.4,424.1c0.1,0.3,2.5,0.8,6.7,0.8s6.6-0.5,6.7-0.8c-0.1-0.3-2.5-0.8-6.7-0.8
					C229,423.2,226.6,423.7,226.4,424.1z"/>
			</g>
			<g>
				<g>
					<path class="st34" d="M229.7,415.7h6.6l1.4,7.8l0,0v0.1c0,0.6-2.1,1.1-4.7,1.1s-4.7-0.5-4.7-1.1L229.7,415.7z"/>
					<path class="st35" d="M228.1,423.7l1.4-7.9c0-0.1,0.1-0.2,0.2-0.2h6.6c0.1,0,0.2,0.1,0.2,0.2l1.4,7.8c0,0.1,0,0.1,0,0.2
						c0,1-2.9,1.3-4.9,1.3C231.1,424.9,228.1,424.7,228.1,423.7z M229.9,415.9l-1.4,7.7c0,0.3,1.5,0.9,4.5,0.9s4.5-0.6,4.5-0.9
						l-1.4-7.7H229.9z"/>
				</g>
				<path class="st38" d="M236.5,422.7c-0.2-2.4-0.6-4.7-1-7h0.8l1.4,7.8l0,0v0.1c0,0.3-0.4,0.5-1.1,0.7
					C236.6,423.8,236.6,423.3,236.5,422.7z"/>
				<path class="st38" d="M229.7,415.7h2.6c0.1,1.8,0.2,7.9,0.2,9c-2.4-0.1-4.2-0.5-4.2-1.1L229.7,415.7z"/>
				<g>
					<path class="st34" d="M229.7,415.7c0-0.4,1.5-0.8,3.3-0.8s3.3,0.4,3.3,0.8s-1.5,0.8-3.3,0.8
						C231.2,416.6,229.7,416.2,229.7,415.7z"/>
					<path class="st35" d="M229.5,415.7c0-0.8,2.3-1,3.5-1s3.5,0.2,3.5,1s-2.3,1-3.5,1S229.5,416.6,229.5,415.7z M229.9,415.7
						c0,0.2,1,0.6,3.1,0.6s3.1-0.4,3.1-0.6s-1-0.6-3.1-0.6C231,415.2,230,415.6,229.9,415.7z"/>
				</g>
			</g>
		</g>
	</g>
	<g>
		<polygon class="st26" points="267.4,427.7 295.7,427.7 298.7,433.2 267.4,433.2 		"/>
		<g>
			<g>
				
					<linearGradient id="SVGID_21_" gradientUnits="userSpaceOnUse" x1="72.821" y1="84.5377" x2="72.821" y2="95.7357" gradientTransform="matrix(-1 0 0 -1 355.521 525.6)">
					<stop  offset="7.134890e-03" style="stop-color:#191818"/>
					<stop  offset="0.176" style="stop-color:#444443"/>
					<stop  offset="0.3386" style="stop-color:#6C6C6B"/>
					<stop  offset="0.7313" style="stop-color:#1F1E1E"/>
					<stop  offset="0.9798" style="stop-color:#121111"/>
				</linearGradient>
				<polygon class="st83" points="268.1,428.3 297.3,430.7 297.3,432.6 268.1,432.6 				"/>
				<path class="st25" d="M267.9,432.6v-4.2c0-0.1,0-0.1,0.1-0.1c0,0,0.1-0.1,0.2-0.1l29.2,2.4c0.1,0,0.2,0.1,0.2,0.2v1.8
					c0,0.1-0.1,0.2-0.2,0.2h-29.2C268,432.7,267.9,432.7,267.9,432.6z M297.1,430.8l-28.8-2.3v3.8h28.8V430.8z"/>
			</g>
			<g>
				
					<linearGradient id="SVGID_22_" gradientUnits="userSpaceOnUse" x1="72.821" y1="107.4799" x2="72.821" y2="88.1266" gradientTransform="matrix(-1 0 0 -1 355.521 525.6)">
					<stop  offset="7.134890e-03" style="stop-color:#191818"/>
					<stop  offset="0.176" style="stop-color:#444443"/>
					<stop  offset="0.3386" style="stop-color:#6C6C6B"/>
					<stop  offset="0.7313" style="stop-color:#1F1E1E"/>
					<stop  offset="0.9798" style="stop-color:#121111"/>
				</linearGradient>
				<polygon class="st84" points="268.1,426.5 294.5,426.5 297.3,430.7 268.1,430.7 				"/>
				<path class="st25" d="M267.9,430.7v-4.2c0-0.1,0.1-0.2,0.2-0.2h26.4c0.1,0,0.1,0,0.2,0.1l2.8,4.2c0,0.1,0,0.1,0,0.2
					s-0.1,0.1-0.2,0.1h-29.2C268,430.8,267.9,430.7,267.9,430.7z M294.4,426.7h-26.1v3.8h28.6L294.4,426.7z"/>
			</g>
		</g>
		<polygon class="st26" points="256.1,427.7 227.8,427.7 224.8,433.2 256.1,433.2 		"/>
		<g>
			<g>
				
					<linearGradient id="SVGID_23_" gradientUnits="userSpaceOnUse" x1="115.021" y1="84.5377" x2="115.021" y2="95.7357" gradientTransform="matrix(-1 0 0 -1 355.521 525.6)">
					<stop  offset="7.134890e-03" style="stop-color:#191818"/>
					<stop  offset="0.176" style="stop-color:#444443"/>
					<stop  offset="0.3386" style="stop-color:#6C6C6B"/>
					<stop  offset="0.7313" style="stop-color:#1F1E1E"/>
					<stop  offset="0.9798" style="stop-color:#121111"/>
				</linearGradient>
				<polygon class="st85" points="255.1,428.3 225.9,430.7 225.9,432.6 255.1,432.6 				"/>
				<path class="st25" d="M225.7,432.6v-1.8c0-0.1,0.1-0.2,0.2-0.2l29.2-2.4c0.1,0,0.1,0,0.2,0.1l0.1,0.1v4.2c0,0.1-0.1,0.2-0.2,0.2
					H226C225.8,432.7,225.7,432.7,225.7,432.6z M254.9,428.6l-28.8,2.3v1.5h28.8V428.6z"/>
			</g>
			<g>
				
					<linearGradient id="SVGID_24_" gradientUnits="userSpaceOnUse" x1="115.021" y1="107.4799" x2="115.021" y2="88.1266" gradientTransform="matrix(-1 0 0 -1 355.521 525.6)">
					<stop  offset="7.134890e-03" style="stop-color:#191818"/>
					<stop  offset="0.176" style="stop-color:#444443"/>
					<stop  offset="0.3386" style="stop-color:#6C6C6B"/>
					<stop  offset="0.7313" style="stop-color:#1F1E1E"/>
					<stop  offset="0.9798" style="stop-color:#121111"/>
				</linearGradient>
				<polygon class="st86" points="255.1,426.5 228.7,426.5 225.9,430.7 255.1,430.7 				"/>
				<path class="st25" d="M225.7,430.7c0-0.1,0-0.1,0.1-0.1l2.8-4.2c0-0.1,0.1-0.1,0.2-0.1h26.4c0.1,0,0.2,0.1,0.2,0.2v4.2
					c0,0.1-0.1,0.2-0.2,0.2H226l0,0C225.8,430.8,225.7,430.7,225.7,430.7z M254.9,426.7h-26.1l-2.5,3.8h28.6V426.7z"/>
			</g>
		</g>
	</g>
</g>
<g>
	<path class="st87" d="M171.3,140.3h-63.6c-7.9,0-14.4-5.2-14.4-11.8V77c0-6.5,6.5-11.8,14.4-11.8h63.6c7.9,0,14.4,5.2,14.4,11.8
		v51.5C185.9,135,179.4,140.3,171.3,140.3z"/>
	<rect x="84.9" y="81.1" class="st1" width="38.8" height="13.7"/>
	<path class="st88" d="M121.8,111.4c0-6.5,4.4-12,10.5-13.6v-6.1h7.4v6.1c5.9,1.6,10.5,7.1,10.5,13.6s-4.4,12-10.5,13.6v6.1h-7.4
		V125C126.1,123.3,121.8,117.9,121.8,111.4z"/>
	<rect x="125.3" y="71.3" class="st89" width="21.9" height="13.4"/>
	<rect x="160.6" y="106.8" class="st90" width="21.8" height="11.7"/>
	<text transform="matrix(1 0 0 1 129.014 80.4577)" class="st5 st2 st91">OFF</text>
	<text transform="matrix(1 0 0 1 165.9281 114.6428)" class="st5 st2 st91">ON</text>
</g>
<g>
	<rect x="335.5" y="206.9" class="st0" width="98.4" height="37.3"/>
	<rect x="345.5" y="220.7" class="st1" width="78.4" height="20.9"/>
	<text transform="matrix(1 0 0 1 345.5113 229.2187)" class="st2 st3">VOLTMETER</text>
</g>
<g>
	<rect x="719" y="105.8" class="st0" width="98.4" height="34.4"/>
	<rect x="729" y="119.3" class="st1" width="78.4" height="20.9"/>
	<text transform="matrix(1 0 0 1 735.8999 127.864)" class="st2 st3">LOAD(Bulb)</text>
</g>
<rect x="724.1" y="200.9" class="st0" width="98.4" height="38.9"/>
<rect x="734.1" y="216" class="st1" width="78.4" height="20.9"/>
<text transform="matrix(1 0 0 1 743.3391 224.542)" class="st2 st3">AMMETER</text>
<g>
	<rect x="508.7" y="164" class="st0" width="51.1" height="34.4"/>
	<rect x="495.9" y="177.5" class="st1" width="78.4" height="20.9"/>
	<text transform="matrix(1 0 0 1 522.4001 186.0505)" class="st2 st3">SCR</text>
</g>
<g>
	<rect x="101.6" y="409.2" class="st0" width="98.4" height="72.2"/>
	<rect x="111.6" y="420.7" class="st1" width="78.4" height="60.6"/>
	<text transform="matrix(1 0 0 1 121.1018 429.3665)" class="st2 st3">ISOLATED </text>
	<text transform="matrix(1 0 0 1 120.2018 441.3665)" class="st2 st92">REGULATED </text>
	<text transform="matrix(1 0 0 1 127.2018 453.3665)" class="st2 st92">VOLTAGE </text>
	<text transform="matrix(1 0 0 1 134.8018 467.7664)" class="st2 st3">0-12V</text>
</g>
<g>
	<rect x="539.9" y="382.9" class="st0" width="165.2" height="38.9"/>
	<rect x="542.9" y="398" class="st1" width="159.2" height="20.9"/>
	<text transform="matrix(1 0 0 1 553.1515 406.556)" class="st2 st3">VARIABLE RESISTANCE</text>
</g>
<g>
	<rect x="90.3" y="156.9" class="st0" width="98.4" height="34.4"/>
	<rect x="100.3" y="170.4" class="st1" width="78.4" height="20.9"/>
	<text transform="matrix(1 0 0 1 116.8389 178.9157)" class="st2 st3">POWER </text>
</g>
<line class="st93" x1="-1" y1="347.8" x2="863" y2="347.8"/>
<line class="st93" x1="421.2" y1="347.2" x2="421.2" y2="525.6"/>
<rect x="241" y="422" class="st1" width="52.3" height="10.7"/>
<text transform="matrix(1 0 0 1 254.114 460.0845)" class="st5 st43 st44">0V</text>
<line class="st94" x1="279.1" y1="48.6" x2="279.1" y2="348.6"/>
<line class="st94" x1="601" y1="48.6" x2="601" y2="347.5"/>
<g>
	<rect x="90.3" y="279.3" class="st0" width="98.4" height="47.6"/>
	<rect x="100.3" y="290.9" class="st1" width="78.4" height="39.8"/>
	<text transform="matrix(1 0 0 1 122.8907 299.5105)" class="st2 st3">HTDC </text>
	<text transform="matrix(1 0 0 1 120.1907 313.9104)" class="st2 st3">0-230V</text>
</g>
<line class="st94" x1="0" y1="48.6" x2="863" y2="48.6"/>
<rect x="254.9" y="18.8" class="st1" width="374" height="36"/>
<text transform="matrix(1 0 0 1 294.7543 32.9994)" class="st2 st95">SCR SETUP WITHOUT CONNECTION</text>

</svg>
